<svg fill="none" xmlns="http://www.w3.org/2000/svg" viewBox="0 0.07 108.99 111.14"> <path fillRule="evenodd" clipRule="evenodd" d="M13.8971 0.397546C12.7157 0.7953 11.6625 1.75903 11.1568 2.90493L10.7818 3.75486L10.8285 50.9865L10.8751 98.2183L11.2722 98.9419C11.735 99.7849 12.7505 100.704 13.6713 101.112C14.2622 101.374 17.5135 101.399 50.8118 101.399H87.3048L87.6512 100.982C88.1205 100.417 88.0904 99.6899 87.5783 99.2209L87.1587 98.8368H51.2314C11.8872 98.8368 14.374 98.9057 13.7871 97.7992C13.5315 97.3173 13.5033 92.6289 13.5033 50.7741C13.5033 9.5648 13.5344 4.22524 13.7782 3.76582C14.3718 2.64677 12.9214 2.71145 37.4441 2.71145H59.7718L59.6589 4.69933C59.5969 5.79276 59.4965 11.8557 59.4357 18.1728L59.3254 29.6583L59.9316 30.6238C60.3364 31.2681 60.8355 31.768 61.432 32.1258L62.326 32.6623L76.0438 32.5979L89.7617 32.5336L89.8773 46.6457C90.1124 75.3272 90.1835 78.8432 90.5362 79.2678C90.9938 79.8188 92.0937 79.7898 92.5756 79.2141C92.9325 78.7879 92.9363 78.6017 92.8249 67.1189C92.7625 60.7047 92.6592 49.9231 92.5952 43.1601L92.479 30.8634L91.2037 29.5541C89.679 27.9885 75.2264 13.6081 68.3109 6.77557C65.6057 4.10297 63.1186 1.60618 62.7838 1.22733C62.449 0.848488 61.9113 0.430943 61.589 0.299655C61.1069 0.10334 56.9093 0.0619917 37.9327 0.0667626C16.0114 0.0722403 14.8146 0.0886731 13.8971 0.397546ZM76.7547 18.9679C81.5978 23.7786 86.0395 28.2117 86.6253 28.819L87.6904 29.9234L84.5362 29.9236C82.8014 29.9237 77.3039 29.9757 72.3195 30.0393L63.2569 30.1549L62.6444 29.6507L62.0318 29.1468L62.1491 18.8004C62.2136 13.1101 62.3165 7.62391 62.3778 6.60929L62.4893 4.76418L65.2193 7.4928C66.7208 8.99334 71.9118 14.1572 76.7547 18.9679ZM2.71751 10.3716C1.72606 10.8217 0.755276 11.7829 0.294534 12.7705C0.0250127 13.3483 0 17.4022 0 60.4926C0 105.627 0.0137749 107.618 0.330241 108.418C0.731351 109.431 2.10524 110.697 3.12913 110.996C3.67488 111.155 12.9385 111.205 41.5277 111.204L79.207 111.202L80.1133 110.785C81.2024 110.283 81.8685 109.623 82.3643 108.555C82.6639 107.91 82.7342 107.388 82.7375 105.787C82.7396 104.701 82.6907 103.685 82.6289 103.527C82.4591 103.096 81.5448 102.7 81.0168 102.829C80.2119 103.026 80.0227 103.52 80.0227 105.423C80.0227 107.353 79.8025 108.002 79.0309 108.344C78.6673 108.506 69.7787 108.555 41.2123 108.555H3.869L3.3392 108.039L2.8094 107.522V60.6713C2.8094 28.8761 2.8694 13.7111 2.99609 13.4805C3.36621 12.806 4.12257 12.6067 6.31028 12.6067C8.12896 12.6067 8.43709 12.5623 8.85687 12.2404C9.45536 11.7815 9.51173 10.8358 8.97197 10.3096C8.64444 9.99029 8.36912 9.95636 6.11725 9.95795C3.8893 9.95954 3.52879 10.0034 2.71751 10.3716ZM17.5223 15.4894C16.9648 16.0681 17.0018 16.9016 17.6059 17.3647C18.0819 17.7298 18.1433 17.731 36.4642 17.731H54.8452L55.29 17.2972C55.8609 16.7408 55.8716 15.9741 55.3155 15.4647L54.8959 15.0805H36.4062H17.9166L17.5223 15.4894ZM19.3858 24.3494C19.1411 24.5879 18.9408 24.989 18.9408 25.2408C18.9408 25.4926 19.1411 25.8937 19.3858 26.1323L19.8306 26.5661H36.4316H53.0327L53.4774 26.1323C53.7221 25.8937 53.9224 25.4926 53.9224 25.2408C53.9224 24.989 53.7221 24.5879 53.4774 24.3494L53.0327 23.9156H36.4316H19.8306L19.3858 24.3494ZM23.5136 32.8688C23.3869 32.9186 23.1562 33.1987 23.0009 33.4915C22.7681 33.9303 22.7573 34.1149 22.9389 34.5425C23.0601 34.8277 23.3059 35.1377 23.485 35.2311C23.6847 35.3354 28.727 35.4011 36.5103 35.4011C48.9683 35.4011 49.2168 35.3944 49.5724 35.0477C49.7968 34.829 49.9349 34.4588 49.9349 34.0759C49.9349 33.693 49.7968 33.3228 49.5724 33.104C49.2164 32.757 48.978 32.7508 36.4769 32.7646C29.4739 32.7722 23.6403 32.8192 23.5136 32.8688ZM62.3506 42.5775C57.5415 43.0404 53.6536 44.3645 50.0487 46.7667C45.0387 50.1055 41.5516 55.0289 40.0311 60.9105C39.4065 63.3269 39.2388 67.6929 39.669 70.3407C41.2774 80.2409 49.1085 88.123 59.327 90.1266C61.5067 90.5541 66.4571 90.5541 68.6368 90.1266C71.9392 89.479 75.1601 88.1735 77.8094 86.4085C78.6356 85.8579 79.3714 85.4075 79.4447 85.4075C79.5177 85.4075 80.2654 86.0816 81.1062 86.9056L82.6349 88.4036L82.6429 90.307C82.6555 93.3332 82.4455 93.0542 90.496 100.738C94.2558 104.327 97.7761 107.645 98.3188 108.111C99.8319 109.411 100.632 109.703 102.679 109.704C104.224 109.704 104.509 109.651 105.449 109.186C106.025 108.902 106.867 108.283 107.319 107.811C108.453 106.629 108.889 105.597 108.982 103.873C109.071 102.218 108.665 100.915 107.702 99.7648C107.382 99.3822 103.961 96.0549 100.101 92.3709C93.9338 86.4852 92.9218 85.5907 91.7602 84.9979C90.5694 84.3904 90.3008 84.3229 89.0539 84.3181C88.2927 84.3151 87.5173 84.36 87.3309 84.4176C87.0748 84.4968 86.5758 84.1149 85.2873 82.8534L83.5825 81.1845L84.4179 79.9594C86.3368 77.1464 87.7614 73.6238 88.2858 70.3966C88.651 68.1484 88.5533 63.563 88.0982 61.5974C86.1187 53.0474 79.9659 46.4006 71.5502 43.7211C68.9618 42.8969 64.6284 42.3584 62.3506 42.5775ZM68.1507 49.6999C74.9777 51.3388 80.0107 56.5086 81.4964 63.4082C81.8662 65.1247 81.779 68.6167 81.3212 70.4422C79.9563 75.8833 76.0694 80.4093 70.9699 82.4956C60.7108 86.6926 49.2947 81.0361 46.6435 70.4422C46.1835 68.6038 46.0936 65.0954 46.4632 63.4082C48.1263 55.8191 53.7531 50.5633 61.5013 49.3619C63.0349 49.1241 66.4821 49.2992 68.1507 49.6999ZM103.524 100.798C104.696 101.504 105.152 103.03 104.557 104.254C104.072 105.25 103.168 105.804 102.027 105.804C99.2205 105.804 98.1595 102.199 100.548 100.78C101.352 100.302 102.714 100.31 103.524 100.798Z" fill="#112668" fillOpacity="0.7"></path> </svg>