<svg fill="none" xmlns="http://www.w3.org/2000/svg" viewBox="0 0.82 183.9 121.37"> <path fillRule="evenodd" clipRule="evenodd" d="M145.918 13.9776C145.497 16.6804 143.322 19.4891 139.689 22.0183C135.131 25.1914 132.13 28.0624 131.105 30.2299C130.227 32.0865 129.308 36.8416 129.654 37.7421C129.769 38.0426 130.809 38.3954 132.342 38.6539C137.338 39.4967 142.743 37.9168 144.735 35.0317C145.545 33.8576 146.258 31.6227 147.241 27.1729L147.459 26.1861L145.991 27.4425C144.147 29.0213 141.524 30.3038 139.517 30.6081L137.97 30.8429L139.762 29.4174C141.854 27.754 143.73 25.3644 145.912 21.5837C147.337 19.1129 147.458 18.7261 147.297 17.1573C147.199 16.2117 146.906 14.7419 146.646 13.8909L146.172 12.3437L145.918 13.9776ZM113.233 34.8351C113.042 35.1435 115.383 36.9716 123.418 42.7885C126.587 45.0831 127.403 45.8396 127.298 46.3825C127.224 46.7607 126.607 50.3193 125.927 54.2905C125.247 58.2617 124.248 63.9864 123.706 67.012C123.164 70.0377 122.155 75.7624 121.464 79.7336C120.772 83.7048 119.536 90.7446 118.717 95.3777C117.898 100.011 116.577 107.507 115.782 112.035L114.335 120.269L115.414 121.233C116.621 122.312 118.034 122.477 119.511 121.714C120.367 121.271 120.496 120.922 121.071 117.502C121.415 115.451 123.468 103.715 125.631 91.4237C127.795 79.1319 130.024 66.4447 130.584 63.2299C131.144 60.0152 132.03 54.9919 132.551 52.0669L133.5 46.7486L137.11 45.6491C147.164 42.5866 150.272 41.5387 150.23 41.2251C150.148 40.6162 146.744 40.6963 138.83 41.4939L131.093 42.2738L126.452 40.0736C121.273 37.6183 114.17 34.5205 113.72 34.5205C113.559 34.5205 113.34 34.6621 113.233 34.8351Z" fill="#96B7E0"></path> <path fillRule="evenodd" clipRule="evenodd" d="M137.994 2.54787C138.233 5.99747 137.342 7.22493 132.589 9.98723C123.471 15.287 120.332 19.3266 119.912 26.3014C119.752 28.9485 119.824 29.466 120.587 31.1308C121.427 32.9658 123.4 35.5424 123.966 35.5424C124.125 35.5424 124.166 33.9567 124.058 32.0182C123.909 29.3721 123.998 27.9587 124.413 26.3454C125.63 21.6175 127.526 19.4648 133.726 15.7724C138.554 12.897 140.156 11.5898 140.982 9.85279C141.568 8.61983 142.259 3.8159 141.811 4.09302C141.695 4.16488 140.845 3.4566 139.922 2.51967C138.999 1.58275 138.161 0.816018 138.059 0.815674C137.957 0.815674 137.928 1.59513 137.994 2.54787ZM68.5235 50.4174C67.4356 50.9348 64.3986 53.6043 59.2402 58.5774C55.0238 62.6424 49.4078 68.0529 46.7603 70.6006C44.1129 73.1484 39.7033 77.4184 36.9613 80.0889C34.2193 82.7597 26.1737 90.4996 19.0823 97.2884C11.9909 104.078 4.79637 110.985 3.09443 112.638L0 115.645L10.726 115.649L21.452 115.654L29.9802 107.315C48.8975 88.8193 58.0684 79.9159 58.1272 79.9898C58.1612 80.0328 57.7603 83.085 57.2367 86.7725C56.713 90.46 55.6458 98.1187 54.865 103.792C54.0838 109.465 53.3693 114.455 53.2765 114.88L53.108 115.654H58.8338H64.5595L67.8386 112.645C71.1723 109.587 76.9276 104.17 82.5182 98.8301C84.2201 97.2042 88.3976 93.255 91.8015 90.054C95.2054 86.8529 98.8881 83.3741 99.9856 82.323C101.083 81.2716 101.901 80.6438 101.804 80.9275C101.534 81.7162 95.0679 114.573 95.0679 115.156C95.0679 115.596 96.0928 115.655 102.368 115.575L109.668 115.482L115.247 87.804C118.581 71.2683 120.832 59.3046 120.841 58.0857C120.866 54.3105 118.514 51.2092 114.809 50.1317C112.49 49.4578 110.806 49.6493 108.534 50.8454C107.437 51.4237 101.721 56.8964 90.4324 68.1777C81.3588 77.2454 73.8899 84.6195 73.8349 84.5644C73.7795 84.5094 75.0685 78.4467 76.6986 71.0916C79.4987 58.4588 79.6411 57.6219 79.2715 55.9619C78.1654 50.9943 72.9578 48.308 68.5235 50.4174ZM136.885 49.915C136.791 50.067 136.001 54.3604 135.13 59.4562C134.258 64.5524 132.4 75.3747 130.999 83.5061C126.144 111.706 125.668 114.526 125.668 115.134C125.668 115.678 125.932 115.727 128.021 115.578C132.196 115.279 135.949 112.966 137.771 109.57C138.484 108.242 139.074 105.524 140.784 95.712C145.126 70.7853 146.218 64.7322 146.408 64.5428C146.866 64.0855 158.339 63.9875 160.393 64.4235C165.015 65.4044 167.611 68.0429 168.303 72.4645C168.765 75.4094 168.481 77.5219 167.335 79.6635C165.723 82.6737 162.02 84.7831 154.894 86.7508C151.791 87.6073 150.702 88.0722 149.835 88.9101C148.414 90.2826 147.783 92.8396 148.224 95.4379L148.533 97.2592L157.096 97.3513C166.849 97.4562 168.057 97.275 172.666 95.0161C177.742 92.5285 181.208 88.5545 182.981 83.1891C183.804 80.6978 183.9 79.898 183.904 75.4262C183.911 68.0474 182.547 63.1733 179.138 58.3955C176.681 54.9528 173.288 52.3476 169.455 50.9616C167.659 50.3125 166.353 50.2052 157.3 49.9656C143.553 49.6011 137.089 49.5853 136.885 49.915Z" fill="#243D80"></path> </svg>