<svg width="32" height="32" viewBox="0 0 32 32" fill="none" xmlns="http://www.w3.org/2000/svg">
<path fillRule="evenodd" clipRule="evenodd" d="M18.2229 0.160401L18.0645 0.318724L18.0645 2.99911L18.0645 5.67943L16 5.67943L13.9355 5.67943L13.9355 4.55401C13.9355 3.47782 13.9292 3.4215 13.7903 3.26679C13.7105 3.17776 12.9629 2.53718 12.129 1.84318C11.2952 1.14924 10.5476 0.564014 10.4677 0.542788C10.3879 0.521563 10.2573 0.521563 10.1774 0.542788C10.0975 0.564014 9.35 1.14924 8.51613 1.84318C7.68226 2.53718 6.93471 3.17776 6.85484 3.26679C6.71045 3.42776 6.70968 3.43963 6.70968 5.58627L6.70968 7.74395L4.54548 7.74395L2.38123 7.74395L2.2229 7.90234L2.06452 8.06066L2.06452 12.0314L2.06452 16.002L2.58065 16.002L3.09677 16.002L3.09677 12.3891L3.09677 8.77621L4.90323 8.77621L6.70968 8.77621L6.70968 12.3891L6.70968 16.002L7.22581 16.002L7.74194 16.002L7.74194 9.93872L7.74194 3.8755L9.01613 2.81059C9.71697 2.22485 10.3048 1.74569 10.3226 1.74569C10.3403 1.74569 10.9282 2.22485 11.629 2.81059L12.9032 3.8755L12.9032 9.93872L12.9032 16.002L13.4194 16.002L13.9355 16.002L13.9355 11.3569L13.9355 6.71169L16 6.71169L18.0645 6.71169L18.0645 11.3569L18.0645 16.002L18.5806 16.002L19.0968 16.002L19.0968 8.51814L19.0968 1.03427L21.6774 1.03427L24.2581 1.03427L24.2581 8.51814L24.2581 16.002L24.7742 16.002L25.2903 16.002L25.2903 12.6472L25.2903 9.29234L27.0968 9.29234L28.9032 9.29234L28.9032 12.6472L28.9032 16.002L29.4194 16.002L29.9355 16.002L29.9355 12.2894L29.9355 8.57679L29.7771 8.41847L29.6188 8.26008L27.4545 8.26008L25.2903 8.26008L25.2903 4.28943L25.2903 0.318724L25.1319 0.160401L24.9736 0.00201419L21.6774 0.00201418L18.3812 0.00201418L18.2229 0.160401ZM20.129 3.09879L20.129 3.61492L20.6452 3.61492L21.1613 3.61492L21.1613 3.09879L21.1613 2.58266L20.6452 2.58266L20.129 2.58266L20.129 3.09879ZM22.1935 3.09879L22.1935 3.61492L22.7097 3.61492L23.2258 3.61492L23.2258 3.09879L23.2258 2.58266L22.7097 2.58266L22.1935 2.58266L22.1935 3.09879ZM8.77419 5.1633L8.77419 5.67943L10.3226 5.67943L11.871 5.67943L11.871 5.1633L11.871 4.64718L10.3226 4.64718L8.77419 4.64718L8.77419 5.1633ZM20.129 5.67943L20.129 6.19556L20.6452 6.19556L21.1613 6.19556L21.1613 5.67943L21.1613 5.1633L20.6452 5.1633L20.129 5.1633L20.129 5.67943ZM22.1935 5.67943L22.1935 6.19556L22.7097 6.19556L23.2258 6.19556L23.2258 5.67943L23.2258 5.1633L22.7097 5.1633L22.1935 5.1633L22.1935 5.67943ZM8.77419 7.74395L8.77419 8.26008L10.3226 8.26008L11.871 8.26008L11.871 7.74395L11.871 7.22782L10.3226 7.22782L8.77419 7.22782L8.77419 7.74395ZM20.129 8.26008L20.129 8.77621L20.6452 8.77621L21.1613 8.77621L21.1613 8.26008L21.1613 7.74395L20.6452 7.74395L20.129 7.74395L20.129 8.26008ZM22.1935 8.26008L22.1935 8.77621L22.7097 8.77621L23.2258 8.77621L23.2258 8.26008L23.2258 7.74395L22.7097 7.74395L22.1935 7.74395L22.1935 8.26008ZM-2.47528e-08 17.5504L-2.54809e-08 18.0665L16 18.0665L32 18.0665L32 17.5504L32 17.0343L16 17.0343L-2.40248e-08 17.0343L-2.47528e-08 17.5504ZM0.725806 19.077C0.468581 19.1659 0.258064 19.2678 0.258064 19.3034C0.258064 19.3391 0.495032 20.0988 0.784645 20.9916C1.22555 22.3508 1.34419 22.648 1.51368 22.8181C1.62503 22.9299 1.8369 23.0576 1.98452 23.1018C2.23026 23.1754 2.3091 23.1647 2.91677 22.9751C3.28194 22.8612 3.626 22.7551 3.68142 22.7394C3.74819 22.7203 3.83348 22.8032 3.93452 22.9854C4.01826 23.1365 4.23194 23.4778 4.40929 23.7439C4.58658 24.0101 4.83529 24.3585 4.96194 24.5181C5.08858 24.6778 5.33632 24.9772 5.51252 25.1835C5.74639 25.4573 5.81626 25.5825 5.77129 25.6472C5.73742 25.6959 5.52516 26.0052 5.29961 26.3345C4.90723 26.9074 4.89071 26.9472 4.91652 27.2579C4.93135 27.4365 4.99626 27.6631 5.06071 27.7614C5.12516 27.8598 5.80123 28.3921 6.56303 28.9444C7.3249 29.4967 8.03445 29.9787 8.13994 30.0155C8.24535 30.0522 8.44684 30.0669 8.58761 30.0479C8.72845 30.0291 8.9171 29.9655 9.0069 29.9067C9.09671 29.8478 9.36103 29.5404 9.59439 29.2234C9.82768 28.9065 10.0394 28.6472 10.0649 28.6472C10.0903 28.6472 10.2966 28.7301 10.5234 28.8315C10.75 28.9329 11.1677 29.0959 11.4516 29.1938C11.7355 29.2916 12.2871 29.451 12.6774 29.5479L13.3871 29.7241L13.4194 30.5361C13.4468 31.2279 13.4716 31.375 13.5866 31.5299C13.6608 31.6299 13.8175 31.777 13.9348 31.8569C14.1438 31.999 14.1857 32.002 16 32.002C17.8194 32.002 17.8557 31.9994 18.0695 31.8553C18.1893 31.7747 18.3533 31.6107 18.4339 31.4909C18.5666 31.2941 18.5806 31.1979 18.5806 30.4875L18.5806 29.7018L19.0143 29.6218C19.2528 29.5779 19.7658 29.4392 20.1543 29.3136C20.5427 29.188 21.0943 28.9867 21.3799 28.8662C21.6656 28.7458 21.9173 28.6472 21.9393 28.6472C21.9613 28.6472 22.1462 28.879 22.3503 29.1624C22.5543 29.4458 22.8066 29.7495 22.9109 29.8373C23.0152 29.925 23.2014 30.0158 23.3244 30.0389C23.4476 30.062 23.6427 30.0629 23.7581 30.0407C23.8845 30.0165 24.5315 29.5916 25.3871 28.971C26.5321 28.1403 26.8345 27.8891 26.9516 27.6712C27.0315 27.5227 27.0968 27.3205 27.0968 27.2219C27.0968 27.1233 27.067 26.9645 27.0307 26.869C26.9945 26.7735 26.7889 26.4518 26.5741 26.1542C26.3592 25.8566 26.193 25.5903 26.2046 25.5625C26.2163 25.5347 26.4871 25.1862 26.8064 24.7883C27.1258 24.3903 27.5537 23.7965 27.7573 23.4688C27.9609 23.1411 28.1503 22.8334 28.1781 22.785C28.219 22.7139 28.3712 22.7428 28.9735 22.9359C29.6612 23.1563 29.7402 23.1687 30.0028 23.0981C30.1694 23.0532 30.3679 22.9358 30.4823 22.8145C30.6393 22.6479 30.7831 22.2835 31.2186 20.9481C31.5163 20.0355 31.7461 19.2749 31.7291 19.258C31.7122 19.2411 31.489 19.1561 31.2332 19.069C30.8961 18.9544 30.7607 18.9323 30.7414 18.9887C30.7268 19.0315 30.4937 19.7438 30.2235 20.5716C29.9036 21.5515 29.7057 22.0664 29.6561 22.0474C29.6143 22.0314 29.2917 21.9258 28.9392 21.8129C28.4539 21.6575 28.2374 21.618 28.0472 21.6501C27.909 21.6734 27.7024 21.7747 27.5881 21.875C27.4738 21.9754 27.2245 22.3136 27.034 22.6266C26.8435 22.9395 26.538 23.3988 26.355 23.6472C26.1721 23.8956 25.8684 24.273 25.6802 24.4859C25.492 24.6988 25.2839 24.9601 25.2177 25.0665C25.1466 25.1807 25.0972 25.3792 25.0972 25.5504C25.0972 25.7316 25.1485 25.9256 25.2335 26.0665C25.3085 26.1907 25.517 26.4919 25.697 26.7359C26.0125 27.1637 26.0198 27.1829 25.8992 27.2734C25.8305 27.325 25.2705 27.7321 24.6548 28.1781C24.0341 28.6277 23.5168 28.9604 23.4935 28.925C23.4705 28.89 23.2774 28.6257 23.0646 28.3377C22.8446 28.0401 22.5762 27.7572 22.4428 27.6823C22.3138 27.6098 22.107 27.5504 21.9832 27.5504C21.8594 27.5504 21.3698 27.7051 20.8952 27.8942C20.4206 28.0832 19.7565 28.313 19.4194 28.4047C19.0823 28.4965 18.6523 28.6063 18.464 28.6489C18.2756 28.6915 18.035 28.7991 17.9294 28.888C17.8237 28.9769 17.6948 29.1318 17.6428 29.2323C17.5759 29.3618 17.5484 29.6321 17.5484 30.1601L17.5484 30.9052L16 30.9052L14.4516 30.9052L14.4516 30.1935C14.4516 29.7383 14.4199 29.4058 14.3636 29.2711C14.3152 29.1553 14.1847 28.984 14.0737 28.8906C13.9402 28.7783 13.702 28.6834 13.3714 28.6107C13.0961 28.5502 12.5901 28.4179 12.2468 28.3167C11.9034 28.2155 11.3158 28.0017 10.9409 27.8416C10.5615 27.6795 10.1579 27.5504 10.0308 27.5504C9.9051 27.5504 9.70316 27.5918 9.58194 27.6425C9.42813 27.7067 9.2229 27.9215 8.90265 28.3532C8.59 28.7747 8.41774 28.956 8.36206 28.9224C8.3171 28.8952 7.76587 28.4984 7.13703 28.0407C6.48981 27.5694 6.00658 27.1746 6.02348 27.1307C6.03981 27.0881 6.22987 26.8062 6.44574 26.5044C6.66168 26.2025 6.85632 25.8654 6.87839 25.7552C6.90039 25.6451 6.90026 25.4581 6.87806 25.3396C6.85252 25.2035 6.66768 24.9238 6.37581 24.5793C6.12174 24.2795 5.76387 23.831 5.58045 23.5827C5.39703 23.3343 5.09464 22.8772 4.90852 22.5671C4.72245 22.2569 4.496 21.9448 4.40535 21.8735C4.31477 21.8022 4.128 21.7101 3.99039 21.6689C3.76484 21.6014 3.6691 21.617 3.01684 21.8286C2.61903 21.9577 2.27458 22.0422 2.25142 22.0165C2.22826 21.9908 1.98723 21.2803 1.71574 20.4375C1.44419 19.5948 1.21568 18.9076 1.20781 18.9103C1.2 18.9131 0.983097 18.9881 0.725806 19.077ZM6.04839 19.1081C5.84439 19.1798 5.67742 19.2763 5.67742 19.3223C5.67742 19.3683 5.75187 19.6039 5.8429 19.8457C5.93394 20.0875 6.13935 20.5465 6.29942 20.8657C6.45942 21.1849 6.72213 21.651 6.88316 21.9015C7.04419 22.1519 7.39561 22.6283 7.66406 22.9602C7.93258 23.2921 8.40761 23.7892 8.71981 24.065C9.03193 24.3409 9.54206 24.7396 9.85335 24.951C10.1646 25.1625 10.6371 25.4532 10.9032 25.597C11.1694 25.7409 11.6499 25.9626 11.971 26.0897C12.2922 26.2168 12.8293 26.393 13.1646 26.4812C13.4999 26.5694 14.1081 26.6898 14.5161 26.7488C15.0708 26.8289 15.5268 26.8478 16.3226 26.8236C17.045 26.8017 17.6146 26.7458 18.0948 26.6496C18.4841 26.5718 19.1057 26.4066 19.4763 26.2826C19.8468 26.1587 20.4428 25.9107 20.8008 25.7316C21.1587 25.5526 21.6839 25.255 21.9677 25.0703C22.2516 24.8856 22.6726 24.5775 22.9032 24.3858C23.1339 24.1941 23.5225 23.8333 23.7669 23.5841C24.0114 23.3349 24.3777 22.9127 24.5812 22.6458C24.7846 22.3789 25.0703 21.9657 25.2161 21.7276C25.3619 21.4894 25.5793 21.098 25.6992 20.8579C25.819 20.6178 25.9917 20.2327 26.0828 20.002C26.1738 19.7714 26.2674 19.5063 26.2905 19.4129C26.3305 19.2521 26.3113 19.2359 25.9281 19.1064C25.7054 19.0312 25.4762 18.9698 25.4186 18.9698C25.3486 18.9698 25.2779 19.084 25.2053 19.3143C25.1455 19.5038 24.9507 19.9573 24.7723 20.3222C24.5938 20.687 24.2683 21.2506 24.0488 21.5745C23.813 21.9225 23.3323 22.481 22.8733 22.9403C22.3699 23.4439 21.8837 23.8576 21.4913 24.1162C21.1583 24.3357 20.6212 24.6439 20.2977 24.8012C19.9743 24.9585 19.4446 25.1751 19.1206 25.2827C18.7966 25.3903 18.2305 25.5357 17.8626 25.6059C17.4946 25.6762 16.8742 25.753 16.4839 25.7767C16.0866 25.8009 15.4837 25.7892 15.1143 25.7505C14.7513 25.7123 14.2333 25.6354 13.9632 25.5797C13.6931 25.5239 13.2062 25.3916 12.8812 25.2857C12.5562 25.1798 11.971 24.935 11.5806 24.7416C11.1903 24.5483 10.6097 24.2019 10.2903 23.9719C9.97097 23.7419 9.45374 23.3011 9.1409 22.9923C8.82806 22.6834 8.38981 22.1878 8.16697 21.8909C7.94413 21.594 7.62826 21.1129 7.4651 20.8217C7.30194 20.5305 7.05206 20.002 6.90974 19.6472C6.72523 19.187 6.61781 18.9985 6.53523 18.9898C6.47148 18.983 6.25239 19.0363 6.04839 19.1081Z" fill="#1F1F1F"/>
</svg>
