<svg width="38" height="32" viewBox="0 0 38 32" fill="none" xmlns="http://www.w3.org/2000/svg">
<path fillRule="evenodd" clipRule="evenodd" d="M10.0829 2.56557C5.76276 3.95655 1.71104 5.24867 1.07894 5.43722C0.116666 5.72402 -0.0564051 5.88878 0.0138882 6.45109C0.0884417 7.04482 0.63641 7.29409 4.75762 8.60879C7.32039 9.42647 9.44916 10.1294 9.4883 10.1709C9.52744 10.2124 9.18769 11.1573 8.73291 12.2704C8.27841 13.3837 7.77277 15.1887 7.60929 16.2816C7.42131 17.5395 7.40533 18.3725 7.56589 18.5519C7.70541 18.7075 10.229 19.8062 13.1739 20.9933C16.1188 22.1805 18.7417 23.1519 19.0027 23.1519C19.2636 23.1519 21.8865 22.1805 24.8314 20.9933C27.7763 19.8062 30.2999 18.7075 30.4394 18.5519C30.6 18.3725 30.584 17.5395 30.396 16.2816C30.2325 15.1887 29.7269 13.3837 29.2724 12.2704C28.8176 11.1573 28.4779 10.213 28.517 10.1725C28.5561 10.1319 29.4945 9.80938 30.6021 9.45546C31.7098 9.10154 32.6981 8.81199 32.7988 8.81199C32.8992 8.81199 32.9814 10.6802 32.9814 12.9633C32.9814 16.9458 32.9545 17.1511 32.3158 18.0207C31.9497 18.5192 31.6501 19.26 31.6501 19.6667C31.6501 20.0734 31.8898 20.6806 32.1826 21.0162C32.4755 21.3518 32.7144 21.9352 32.7133 22.3129C32.7125 22.6903 32.4705 24.8496 32.1755 27.111C31.8807 29.3724 31.6978 31.3974 31.7694 31.6113C31.8567 31.8716 32.4771 32 33.6471 32C34.817 32 35.4374 31.8716 35.5248 31.6113C35.5964 31.3974 35.4135 29.3724 35.1187 27.111C34.8237 24.8496 34.5817 22.6903 34.5809 22.3129C34.5798 21.9352 34.8186 21.3518 35.1115 21.0162C35.4044 20.6806 35.6441 20.0734 35.6441 19.6667C35.6441 19.26 35.3445 18.5192 34.9784 18.0207C34.3356 17.1453 34.3127 16.9632 34.3127 12.7018L34.3127 8.28935L36.11 7.70171C37.5409 7.23399 37.9241 6.98136 37.9893 6.4636C38.042 6.04652 37.8988 5.75392 37.5899 5.64775C37.3252 5.55682 33.1734 4.2406 28.3639 2.72301C23.5544 1.20572 19.241 -0.0198922 18.7785 0.000244792C18.316 0.0200766 14.403 1.1746 10.0829 2.56557ZM26.6987 3.82962C30.8133 5.11686 34.2933 6.28389 34.4326 6.42302C34.5715 6.56245 33.9725 6.67442 33.1012 6.67198C32.2298 6.66954 29.1206 6.46482 26.1917 6.21677C23.2629 5.96872 20.3534 5.7646 19.7266 5.76338C18.9356 5.76155 18.5375 5.90739 18.4265 6.23904C18.3383 6.50204 18.3721 6.83338 18.5013 6.97556C18.6307 7.11774 20.9831 7.40607 23.7288 7.61629C26.4748 7.82681 28.7212 8.0831 28.7212 8.18622C28.7212 8.28904 26.6521 9.02129 24.1231 9.81304C21.5942 10.6051 19.2892 11.2528 19.0011 11.2528C18.7127 11.2528 15.0982 10.1914 10.9687 8.89407C6.83926 7.59676 3.51311 6.47519 3.57754 6.40135C3.64171 6.32752 7.01899 5.20229 11.0824 3.90102C15.1456 2.59944 18.6384 1.52425 18.844 1.51204C19.0495 1.49953 22.5841 2.54269 26.6987 3.82962ZM15.418 11.9906L19.0221 13.1301L22.8568 11.8969C25.3541 11.0936 26.7975 10.7641 26.9948 10.952C27.1617 11.1104 27.6245 12.0043 28.0236 12.9379C28.4227 13.8719 28.8171 15.293 28.9002 16.0961L29.0509 17.5566L24.0238 19.5966L18.9965 21.6368L14.0073 19.6081C9.12246 17.6225 9.01782 17.5618 9.01782 16.7151C9.01782 16.2398 9.20952 15.2036 9.44384 14.4125C9.67841 13.6214 10.1654 12.4385 10.5262 11.7834C10.887 11.1284 11.3242 10.6506 11.4978 10.722C11.6717 10.793 13.4354 11.3639 15.418 11.9906ZM34.1394 19.3284C34.2219 19.5746 34.1692 19.8614 34.022 19.9657C33.875 20.0698 33.5826 20.0792 33.3726 19.9868C33.1582 19.8928 33.0594 19.613 33.1476 19.3497C33.2338 19.0916 33.4588 18.8805 33.6471 18.8805C33.8353 18.8805 34.0571 19.0821 34.1394 19.3284ZM34.031 29.9405C34.0396 30.238 33.8542 30.4745 33.6122 30.4745C33.2586 30.4745 33.2085 30.2621 33.343 29.3303C33.4338 28.7012 33.5233 27.9116 33.5416 27.576C33.56 27.2404 33.6742 27.515 33.7954 28.1862C33.9165 28.8574 34.0228 29.6467 34.031 29.9405Z" fill="#1F1F1F"/>
<path d="M1.10752 5.53305L1.1075 5.53306C0.867945 5.60445 0.68114 5.66722 0.536116 5.72945C0.39066 5.79187 0.293249 5.8513 0.22815 5.91327C0.108589 6.02708 0.0791892 6.16729 0.113116 6.43868C0.129471 6.56887 0.169747 6.67416 0.278035 6.78344C0.391224 6.89767 0.582031 7.01953 0.909662 7.16855C1.56448 7.4664 2.7251 7.85544 4.78801 8.51352L4.75762 8.60879L4.78801 8.51352C6.06963 8.92244 7.24284 9.3027 8.10068 9.58598C8.52954 9.72759 8.87987 9.84507 9.12561 9.92979C9.24838 9.97212 9.3456 10.0065 9.41362 10.0317C9.4475 10.0442 9.47506 10.0548 9.49523 10.0632C9.50517 10.0673 9.51458 10.0714 9.52253 10.0753C9.52466 10.0764 9.52707 10.0776 9.52961 10.0789C9.53172 10.0801 9.53393 10.0813 9.53615 10.0826L9.53636 10.0827C9.53938 10.0845 9.55053 10.0912 9.56104 10.1023C9.58289 10.1255 9.58801 10.1517 9.58959 10.1615C9.59162 10.174 9.59155 10.1856 9.59115 10.1939C9.59035 10.2108 9.58736 10.2293 9.58377 10.2471C9.57642 10.2837 9.56354 10.3318 9.54654 10.3886C9.51231 10.503 9.45859 10.6618 9.38992 10.8527C9.25243 11.2349 9.05326 11.7507 8.8255 12.3082C8.37374 13.4147 7.8704 15.212 7.70819 16.2964C7.61452 16.9232 7.56417 17.4412 7.55687 17.8231C7.55321 18.0143 7.56041 18.1684 7.57743 18.2838C7.59523 18.4044 7.62136 18.4637 7.64025 18.485C7.6399 18.4846 7.64011 18.4848 7.64106 18.4855C7.64381 18.4877 7.65283 18.4947 7.67272 18.5072C7.69684 18.5224 7.7303 18.5415 7.77339 18.5646C7.85939 18.6108 7.97922 18.6703 8.12975 18.7417C8.43056 18.8845 8.84999 19.073 9.35781 19.2941C10.3732 19.7361 11.7395 20.3073 13.2113 20.9006C14.6831 21.4939 16.0741 22.0332 17.1295 22.424C17.6573 22.6195 18.1005 22.7776 18.4276 22.8867C18.5913 22.9413 18.7249 22.9834 18.8252 23.0116C18.8754 23.0258 18.9162 23.0362 18.9477 23.043C18.9812 23.0503 18.9978 23.0519 19.0027 23.0519C19.0075 23.0519 19.0241 23.0503 19.0576 23.043C19.0891 23.0362 19.1299 23.0258 19.1801 23.0116C19.2804 22.9834 19.414 22.9413 19.5777 22.8867C19.9048 22.7776 20.348 22.6195 20.8758 22.424C21.9312 22.0332 23.3223 21.4939 24.794 20.9006C26.2658 20.3073 27.6321 19.7361 28.6475 19.2941C29.1553 19.073 29.5748 18.8845 29.8756 18.7417C30.0261 18.6703 30.1459 18.6108 30.2319 18.5646C30.275 18.5415 30.3085 18.5224 30.3326 18.5072C30.3525 18.4947 30.3615 18.4877 30.3642 18.4855C30.3652 18.4848 30.3654 18.4846 30.365 18.485C30.3839 18.4638 30.4101 18.4045 30.4279 18.2838C30.4449 18.1684 30.4521 18.0143 30.4484 17.8231C30.4411 17.4412 30.3908 16.9232 30.2971 16.2964C30.1349 15.212 29.6316 13.4147 29.1798 12.3082C28.952 11.7507 28.7529 11.2351 28.6154 10.8531C28.5467 10.6624 28.493 10.5038 28.4588 10.3896C28.4418 10.3328 28.4289 10.2848 28.4215 10.2484C28.418 10.2306 28.415 10.2121 28.4142 10.1952C28.4138 10.187 28.4137 10.1754 28.4157 10.1628C28.4173 10.153 28.4226 10.1263 28.445 10.103C28.4554 10.0923 28.4665 10.0853 28.4711 10.0826C28.4773 10.0788 28.4837 10.0753 28.4897 10.0723C28.5018 10.0662 28.5167 10.0595 28.5333 10.0525C28.5669 10.0382 28.6126 10.0203 28.6685 9.99942C28.7805 9.95749 28.9371 9.90198 29.1264 9.8369C29.5051 9.70666 30.0173 9.53733 30.5717 9.3602C31.1261 9.18306 31.6509 9.02194 32.05 8.90504C32.2494 8.84661 32.418 8.79907 32.5434 8.76606C32.606 8.74958 32.6586 8.73651 32.6993 8.7275C32.7355 8.71947 32.7732 8.71199 32.7988 8.71199C32.8437 8.71199 32.872 8.73835 32.8839 8.75222C32.8966 8.76691 32.9044 8.78282 32.9092 8.79406C32.9193 8.8174 32.9269 8.84619 32.9332 8.87585C32.9462 8.93675 32.9581 9.02293 32.9691 9.12927C32.9913 9.34303 33.0111 9.65021 33.0276 10.0271C33.0608 10.7814 33.0814 11.8207 33.0814 12.9633C33.0814 14.951 33.0749 16.0063 32.9873 16.6724C32.9431 17.0081 32.8778 17.2498 32.7803 17.4649C32.6833 17.679 32.5564 17.8621 32.3964 18.0799C32.219 18.3214 32.0564 18.6237 31.9384 18.9156C31.8194 19.2099 31.7501 19.4826 31.7501 19.6667C31.7501 19.8532 31.8058 20.0937 31.8996 20.3314C31.9932 20.5686 32.121 20.7935 32.258 20.9505C32.4133 21.1285 32.5515 21.3684 32.6507 21.6109C32.7496 21.8525 32.8139 22.1063 32.8133 22.3132M1.10752 5.53305L35.5248 31.6113M1.10752 5.53305C1.74096 5.3441 5.79412 4.0515 10.1135 2.66076C12.273 1.96547 14.3304 1.32934 15.9056 0.864642C16.6932 0.632268 17.3597 0.44291 17.8579 0.310481C18.107 0.244248 18.3133 0.192439 18.4713 0.156644C18.6324 0.120141 18.7354 0.102182 18.7827 0.100153L18.7828 0.10015C18.8263 0.0982576 18.932 0.112196 19.1061 0.147257C19.2756 0.181375 19.4991 0.233116 19.7708 0.300842C20.3138 0.436243 21.0455 0.634642 21.9137 0.881284C23.65 1.37451 25.9298 2.05995 28.3338 2.81837C33.1446 4.33637 37.2943 5.65194 37.5574 5.74231C37.6876 5.78708 37.7796 5.86907 37.8354 5.98305C37.8923 6.09923 37.9148 6.25569 37.8901 6.45106L37.8901 6.4511C37.8752 6.56883 37.8431 6.66658 37.7855 6.75522C37.7275 6.84446 37.6401 6.93007 37.5068 7.01792C37.2366 7.1959 36.7954 7.37247 36.0789 7.60666L36.11 7.70171M1.10752 5.53305L36.11 7.70171M32.8133 22.3132L32.7133 22.3129L32.8133 22.3131C32.8133 22.3131 32.8133 22.3132 32.8133 22.3132ZM32.8133 22.3132C32.8129 22.5089 32.7512 23.15 32.6541 24.0166C32.5565 24.8869 32.4222 25.9927 32.2746 27.1239C32.1274 28.2536 32.0081 29.3239 31.9346 30.138C31.8979 30.5451 31.8727 30.8873 31.8611 31.1405C31.8553 31.2672 31.853 31.3704 31.8542 31.4477C31.8548 31.4864 31.8563 31.5174 31.8585 31.5411C31.8596 31.5529 31.8608 31.5621 31.862 31.5691L31.8636 31.577C31.864 31.5788 31.8642 31.5796 31.8642 31.5796M31.8642 31.5796C31.875 31.6116 31.9063 31.652 31.9832 31.6941C32.0597 31.7361 32.1712 31.774 32.3225 31.8053C32.6247 31.8679 33.0643 31.9 33.6471 31.9C34.2299 31.9 34.6694 31.8679 34.9716 31.8053C35.1229 31.774 35.2345 31.7361 35.311 31.6941C35.3878 31.652 35.4192 31.6116 35.4299 31.5795M31.8642 31.5796C31.8642 31.5795 31.8642 31.5795 31.8642 31.5795L31.7694 31.6113L31.8642 31.5795C31.8642 31.5795 31.8642 31.5796 31.8642 31.5796ZM35.4299 31.5795C35.4299 31.5797 35.4302 31.5789 35.4306 31.577L35.4322 31.5691C35.4329 31.5649 35.4336 31.56 35.4343 31.5542C35.4348 31.5502 35.4352 31.5459 35.4357 31.5411C35.4379 31.5174 35.4394 31.4864 35.44 31.4477C35.4412 31.3704 35.4389 31.2672 35.4331 31.1405C35.4215 30.8873 35.3963 30.5451 35.3595 30.138C35.2861 29.3239 35.1668 28.2536 35.0196 27.1239C34.872 25.9927 34.7376 24.8869 34.6401 24.0166C34.5429 23.15 34.4813 22.5089 34.4809 22.3132M35.4299 31.5795C35.43 31.5795 35.43 31.5795 35.43 31.5795L35.5248 31.6113M35.4299 31.5795L35.5248 31.6113M34.4809 22.3132L34.5809 22.3129M34.4809 22.3132C34.4809 22.3132 34.4809 22.3131 34.4809 22.3131L34.5809 22.3129M34.4809 22.3132C34.4803 22.1063 34.5445 21.8525 34.6434 21.6109C34.7427 21.3684 34.8808 21.1285 35.0362 20.9505C35.1731 20.7935 35.301 20.5686 35.3946 20.3314C35.4884 20.0937 35.5441 19.8532 35.5441 19.6667C35.5441 19.4826 35.4748 19.2099 35.3558 18.9156C35.2378 18.6237 35.0752 18.3214 34.8978 18.0799L34.9784 18.0207M34.5809 22.3129C34.5817 22.6903 34.8237 24.8496 35.1187 27.111C35.4135 29.3724 35.5964 31.3974 35.5248 31.6113M34.5809 22.3129C34.5798 21.9352 34.8186 21.3518 35.1115 21.0162C35.4044 20.6806 35.6441 20.0734 35.6441 19.6667C35.6441 19.26 35.3445 18.5192 34.9784 18.0207M34.9784 18.0207C34.3356 17.1453 34.3127 16.9632 34.3127 12.7018L34.3127 8.28935L36.11 7.70171M34.9784 18.0207L34.8978 18.0799C34.7369 17.8608 34.6092 17.6778 34.512 17.4604C34.4142 17.242 34.3492 16.9937 34.3053 16.6434C34.2183 15.9479 34.2127 14.8289 34.2127 12.7018L34.2127 8.28935L34.2127 8.21683L34.2817 8.1943L36.0789 7.60667L36.11 7.70171M26.6987 3.82962L26.7286 3.73418C28.7863 4.37795 30.6856 4.99173 32.0882 5.46205C32.7893 5.69718 33.3669 5.89663 33.7782 6.04614C33.9837 6.12084 34.1486 6.1834 34.2669 6.2319C34.326 6.25609 34.3747 6.27728 34.4115 6.29507C34.4298 6.30395 34.4464 6.31254 34.4604 6.32072C34.4725 6.32782 34.4894 6.33844 34.5032 6.35228L34.5034 6.35242C34.5355 6.3846 34.5657 6.43764 34.547 6.50183C34.5314 6.55533 34.4886 6.58802 34.4571 6.60689C34.3904 6.64677 34.2861 6.6762 34.1641 6.699C33.9142 6.74573 33.5397 6.77321 33.101 6.77198C32.2246 6.76953 29.1112 6.56437 26.1833 6.31641C23.2524 6.06819 20.348 5.86459 19.7264 5.86338L19.7264 5.86338C19.3347 5.86247 19.0515 5.89847 18.8559 5.97006C18.6643 6.04019 18.5648 6.14092 18.5213 6.27079L18.5213 6.27081C18.4821 6.38773 18.4696 6.52193 18.4819 6.64249C18.494 6.76168 18.5287 6.8533 18.5708 6.90319C18.5734 6.90454 18.5788 6.90724 18.5882 6.91099C18.608 6.91889 18.637 6.92821 18.6762 6.93867C18.7543 6.95951 18.8644 6.98269 19.0041 7.00765C19.2832 7.05749 19.6731 7.11318 20.1461 7.17115C21.0917 7.28706 22.3647 7.41155 23.7365 7.51658C25.1103 7.6219 26.3597 7.73872 27.2661 7.84217C27.7191 7.89387 28.0876 7.94238 28.3436 7.9846C28.4711 8.00564 28.5732 8.02551 28.6444 8.04395C28.6793 8.05299 28.7111 8.06276 28.7359 8.07372C28.7477 8.07898 28.7634 8.08685 28.7777 8.09845C28.7886 8.1073 28.8212 8.13638 28.8212 8.18622C28.8212 8.22828 28.7972 8.2561 28.7895 8.26467C28.7785 8.27686 28.7659 8.28675 28.7553 8.29426C28.7336 8.30968 28.705 8.3258 28.6729 8.34223C28.6075 8.37558 28.5138 8.41697 28.3963 8.46501C28.1606 8.56139 27.8211 8.68793 27.4039 8.83556C26.569 9.13096 25.4183 9.51235 24.153 9.90848C22.8878 10.3047 21.6784 10.665 20.7488 10.9262C20.2842 11.0568 19.8889 11.1629 19.5913 11.2363C19.4425 11.273 19.3174 11.3018 19.2199 11.3215C19.1256 11.3405 19.0486 11.3528 19.0011 11.3528C18.9727 11.3528 18.9334 11.3469 18.8903 11.3389C18.8449 11.3304 18.7876 11.318 18.7197 11.302C18.5836 11.2701 18.4014 11.2233 18.179 11.1633C17.734 11.0432 17.1253 10.8697 16.3971 10.6559C14.9405 10.2281 13.0039 9.63826 10.9387 8.98947C8.87358 8.34068 7.00898 7.73574 5.66846 7.28367C4.99835 7.05768 4.4585 6.86966 4.08985 6.73335C3.90582 6.66531 3.76294 6.6096 3.66747 6.5682C3.62038 6.54777 3.58161 6.52946 3.55461 6.51389C3.54235 6.50683 3.52589 6.49663 3.51228 6.48363C3.50634 6.47795 3.49222 6.46374 3.48366 6.44146C3.47245 6.41232 3.47219 6.36999 3.5022 6.3356M26.6987 3.82962L3.57754 6.40135M26.6987 3.82962C22.5841 2.54269 19.0495 1.49953 18.844 1.51204M26.6987 3.82962L18.838 1.41222L18.844 1.51204M26.6987 3.82962L26.7286 3.73418C24.6709 3.0906 22.7581 2.50791 21.3338 2.08763C20.6217 1.87751 20.0313 1.70786 19.6058 1.59146C19.3931 1.53328 19.2209 1.48821 19.0951 1.45801C19.0322 1.44293 18.98 1.43133 18.9395 1.42363C18.9038 1.41683 18.8654 1.41055 18.8379 1.41223M26.6987 3.82962L18.8379 1.41223M3.5022 6.3356L3.57754 6.40135M3.5022 6.3356C3.50216 6.33565 3.50211 6.33571 3.50207 6.33576L3.57754 6.40135M3.5022 6.3356C3.5131 6.32311 3.5251 6.31543 3.52922 6.3128C3.53535 6.30889 3.54168 6.30543 3.54732 6.30252C3.5587 6.29664 3.57266 6.29026 3.58816 6.28358C3.61946 6.27008 3.66264 6.25296 3.71631 6.23259C3.82396 6.19175 3.97798 6.13632 4.17279 6.06813C4.56263 5.93168 5.11835 5.74326 5.79865 5.5166C7.15938 5.06325 9.01994 4.4565 11.0519 3.80578M3.57754 6.40135C3.58306 6.39501 3.61301 6.38091 3.66574 6.35961C3.65925 6.34739 3.65198 6.34049 3.65054 6.33911L3.65043 6.33901C3.64841 6.33708 3.6471 6.33609 3.64711 6.33608C3.64712 6.33606 3.6492 6.33757 3.65451 6.34063C3.66093 6.34433 3.66933 6.34877 3.67985 6.35396C4.27773 6.11607 7.39801 5.08091 11.0824 3.90102M11.0519 3.80578L11.0824 3.90102M11.0519 3.80578C11.0519 3.80578 11.0519 3.80578 11.0519 3.80578L11.0824 3.90102M11.0519 3.80578C13.0838 3.15491 14.9731 2.5606 16.3804 2.12744C17.0839 1.91088 17.6673 1.7345 18.0878 1.61146C18.298 1.54996 18.468 1.50164 18.5921 1.46824C18.6541 1.45157 18.7054 1.43844 18.7448 1.42922C18.781 1.42075 18.815 1.41361 18.8379 1.41223M11.0824 3.90102C15.1456 2.59944 18.6384 1.52425 18.844 1.51204M18.4265 6.23904C18.5375 5.90739 18.9356 5.76155 19.7266 5.76338C20.3534 5.7646 23.2629 5.96872 26.1917 6.21677C29.1206 6.46482 32.2298 6.66954 33.1012 6.67198C33.9725 6.67442 34.5715 6.56245 34.4326 6.42302L18.4265 6.23904ZM18.4265 6.23904C18.3383 6.50204 18.3721 6.83338 18.5013 6.97556L18.4265 6.23904ZM18.844 1.51204L18.8379 1.41223M15.4481 11.8952L15.4481 11.8952L19.0218 13.0252L22.8262 11.8017C24.0758 11.3997 25.0641 11.1155 25.766 10.9552C26.1165 10.8752 26.3988 10.8253 26.6078 10.8077C26.712 10.799 26.8018 10.7979 26.8744 10.8064C26.9428 10.8144 27.0146 10.8328 27.0638 10.8796M15.4481 11.8952L26.9948 10.952M15.4481 11.8952C13.4623 11.2675 11.7052 10.6987 11.5357 10.6294L15.4481 11.8952ZM27.0638 10.8796L26.9948 10.952M27.0638 10.8796C27.0637 10.8795 27.0637 10.8795 27.0636 10.8794L26.9948 10.952M27.0638 10.8796C27.1165 10.9297 27.1829 11.0264 27.2554 11.146C27.33 11.2692 27.4171 11.4271 27.5109 11.6082C27.6986 11.9707 27.9152 12.4298 28.1156 12.8986L28.0236 12.9379C27.6245 12.0043 27.1617 11.1104 26.9948 10.952M34.0798 20.0473L34.0798 20.0474C33.9844 20.1148 33.8528 20.1457 33.7242 20.1499C33.5938 20.1541 33.453 20.1314 33.3324 20.0784C33.3324 20.0783 33.3323 20.0783 33.3323 20.0783L33.3726 19.9868L34.0798 20.0473ZM34.0798 20.0473C34.1828 19.9744 34.2414 19.8478 34.2652 19.7184M34.0798 20.0473L34.2652 19.7184M34.2652 19.7184C34.2895 19.5864 34.2809 19.436 34.2342 19.2966M34.2652 19.7184L34.2342 19.2966M34.2342 19.2966C34.1874 19.1566 34.1016 19.0303 34.0003 18.9381C33.9006 18.8474 33.7751 18.7805 33.6471 18.7805C33.5176 18.7805 33.391 18.8511 33.2906 18.9454C33.1883 19.0415 33.1012 19.1729 33.0527 19.318M34.2342 19.2966L33.0527 19.318M33.0527 19.318C33.0527 19.318 33.0527 19.318 33.0527 19.318L33.1476 19.3497L33.0527 19.318ZM3.66134 6.45593C3.65887 6.45973 3.65607 6.46347 3.65289 6.46711C3.64767 6.47309 3.64301 6.47684 3.64112 6.47831C3.63884 6.48008 3.63721 6.48114 3.63672 6.48146C3.63644 6.48163 3.6363 6.48172 3.6363 6.48172C3.6363 6.48172 3.63712 6.48124 3.63906 6.48024C3.64446 6.47745 3.6536 6.47316 3.66736 6.46723C3.67043 6.46591 3.67365 6.46453 3.67704 6.4631C3.67159 6.46064 3.66636 6.45825 3.66134 6.45593ZM33.6122 30.5745C33.9298 30.5745 34.1405 30.2702 34.131 29.9377C34.1225 29.6357 34.015 28.8398 33.8938 28.1684C33.8333 27.8333 33.773 27.5869 33.7223 27.4651C33.71 27.4355 33.6945 27.4038 33.6744 27.38C33.6647 27.3686 33.6463 27.3496 33.6179 27.3394C33.5825 27.3268 33.5439 27.3323 33.5135 27.3543C33.489 27.3719 33.4765 27.3953 33.4702 27.4093C33.4632 27.4249 33.4586 27.4415 33.4552 27.4568C33.4484 27.4878 33.4442 27.5263 33.4418 27.5705C33.4237 27.9016 33.3347 28.6877 33.244 29.316C33.2103 29.5499 33.1877 29.7412 33.1788 29.8965C33.1699 30.0505 33.174 30.1758 33.1972 30.2747C33.2211 30.3761 33.2672 30.4576 33.347 30.5102C33.4234 30.5606 33.5162 30.5745 33.6122 30.5745Z" stroke="#A0CBFF" stroke-opacity="0.25" strokeWidth="0.2"/>
</svg>
