<svg width="32" height="32" viewBox="0 0 32 32" fill="none" xmlns="http://www.w3.org/2000/svg">
<mask id="path-1-inside-1_178_172" fill="white">
<path fillRule="evenodd" clipRule="evenodd" d="M21.9401 0.0969268C21.7489 0.148287 21.4233 0.280493 21.2167 0.390633C21.01 0.500773 20.6834 0.755959 20.4909 0.957721C20.2984 1.15948 20.0647 1.475 19.9716 1.65876C19.8784 1.84258 19.7589 2.15926 19.7059 2.36244C19.653 2.56568 19.6097 2.89398 19.6097 3.09199C19.6097 3.29001 19.653 3.6183 19.7059 3.82155C19.7589 4.02473 19.8761 4.33676 19.9663 4.51491C20.0566 4.69299 20.2351 4.95463 20.3631 5.09619C20.4911 5.23782 20.5844 5.36312 20.5706 5.37461C20.5567 5.38609 20.2405 5.4921 19.8678 5.61018C19.3976 5.7591 18.3609 6.23798 16.4812 7.1744C14.9913 7.91673 13.699 8.57531 13.6095 8.63789C13.5185 8.70158 13.2742 8.76687 13.0552 8.78597C12.7394 8.81352 12.1516 9.03329 10.0135 9.92337C8.55586 10.5301 7.3178 11.0441 7.26217 11.0654C7.18905 11.0934 7.21306 11.0081 7.34858 10.7579C7.45177 10.5675 7.58103 10.2394 7.63588 10.0289C7.69073 9.8184 7.73558 9.48417 7.73558 9.28615C7.73558 9.08813 7.69112 8.75545 7.63678 8.54685C7.58245 8.33819 7.44828 7.99932 7.3387 7.79381C7.22913 7.58824 6.97442 7.2626 6.77262 7.07019C6.57083 6.87772 6.25526 6.64402 6.07147 6.55091C5.88761 6.45774 5.57089 6.33825 5.36767 6.28534C5.16439 6.23237 4.83605 6.18907 4.638 6.18907C4.43994 6.18907 4.10721 6.23353 3.89858 6.28786C3.68988 6.34218 3.35095 6.47633 3.14541 6.58589C2.93981 6.69545 2.61411 6.95011 2.42167 7.15188C2.22917 7.35364 1.99543 7.66915 1.90231 7.85291C1.80913 8.03674 1.68961 8.35341 1.63669 8.55659C1.58371 8.75984 1.54041 9.08813 1.54041 9.28615C1.54041 9.48417 1.58371 9.81246 1.63669 10.0157C1.68961 10.2189 1.80874 10.5347 1.90134 10.7175C1.99401 10.9003 2.2193 11.209 2.40206 11.4035C2.60572 11.6202 2.7031 11.7679 2.65367 11.7851C2.6094 11.8006 2.36256 11.9511 2.10514 12.1197C1.84778 12.2882 1.45774 12.6185 1.23846 12.8538C1.01911 13.089 0.732135 13.4738 0.600681 13.7088C0.469227 13.9438 0.285695 14.3587 0.192768 14.6307L0.0238848 15.1254L0.00620276 22.7984C-0.00947876 29.6034 -5.69188e-05 30.5057 0.0890632 30.7741C0.144303 30.9405 0.293504 31.198 0.420505 31.3463C0.547506 31.4947 0.800604 31.6947 0.982975 31.7909L1.31455 31.9658L16.6573 31.9824L32 31.9991V27.353V22.7068H29.5876H27.1753L27.2616 22.4649C27.3275 22.2803 27.3487 21.6679 27.3508 19.884L27.3536 17.545H29.4187H31.4837V14.4479V11.3509H29.9419H28.4001L28.3736 10.1411C28.3484 8.98935 28.3376 8.90411 28.1482 8.366C28.0388 8.05506 27.8516 7.63528 27.7321 7.43313C27.6127 7.23098 27.2972 6.84391 27.031 6.57292C26.7545 6.29153 26.3532 5.96763 26.0952 5.81768C25.8468 5.67322 25.4838 5.5021 25.2886 5.43739C25.0934 5.37267 24.9225 5.31305 24.9089 5.30492C24.8953 5.29673 24.9753 5.18639 25.0865 5.05974C25.1978 4.93301 25.3616 4.6857 25.4505 4.5102C25.5395 4.33463 25.6556 4.02473 25.7085 3.82155C25.7615 3.6183 25.8048 3.29001 25.8048 3.09199C25.8048 2.89398 25.7615 2.56568 25.7085 2.36244C25.6556 2.15926 25.5361 1.84258 25.4429 1.65876C25.3498 1.475 25.1161 1.15948 24.9236 0.957721C24.7311 0.755959 24.4054 0.501289 24.1998 0.39173C23.9943 0.282171 23.6554 0.148029 23.4467 0.0937007C23.238 0.0393728 22.8919 -0.00314751 22.6776 -0.000824706C22.4632 0.0014981 22.1314 0.0455024 21.9401 0.0969268ZM23.5608 1.23672C23.7541 1.32518 24.0224 1.50777 24.1571 1.64237C24.2917 1.77703 24.4778 2.04938 24.5706 2.24765C24.7053 2.53575 24.7392 2.70518 24.7392 3.09199C24.7392 3.47965 24.7057 3.6465 24.571 3.93079C24.4785 4.12597 24.2899 4.39851 24.1519 4.53646C24.014 4.67441 23.7414 4.86191 23.5462 4.95315C23.2668 5.08374 23.0882 5.11961 22.7072 5.12174C22.3162 5.12387 22.154 5.09193 21.8628 4.9554C21.6645 4.86243 21.3921 4.67621 21.2574 4.54162C21.1228 4.40696 20.9417 4.14197 20.855 3.95266C20.7684 3.76342 20.6815 3.45384 20.6619 3.26479C20.6391 3.04322 20.6628 2.79616 20.7286 2.56969C20.7848 2.3765 20.9192 2.08486 21.0274 1.92162C21.1355 1.75838 21.3413 1.54352 21.4849 1.44409C21.6283 1.34466 21.8967 1.20942 22.0813 1.14348C22.3169 1.05928 22.5349 1.03134 22.813 1.04967C23.0493 1.06528 23.351 1.14071 23.5608 1.23672ZM24.8368 6.37825C25.0675 6.45787 25.4201 6.62228 25.6203 6.74358C25.8206 6.86488 26.1591 7.15084 26.3725 7.379C26.586 7.60715 26.8507 7.97718 26.9607 8.20127C27.0708 8.42536 27.2037 8.81191 27.2561 9.06032C27.3268 9.39545 27.3517 9.97473 27.3525 11.3054L27.3536 13.0988L27.1952 13.2572C27.0954 13.3571 26.9631 13.4156 26.8374 13.4156C26.7116 13.4156 26.5794 13.3571 26.4795 13.2572L26.3211 13.0988V11.4286C26.3211 9.98848 26.3039 9.69122 26.1962 9.27041C26.1276 9.00199 25.9937 8.62712 25.8987 8.43742C25.8038 8.24773 25.6122 7.94002 25.4729 7.75374C25.3337 7.5674 25.1854 7.415 25.1433 7.415C25.1012 7.415 24.9162 7.56366 24.7322 7.74529L24.3977 8.07564L24.6209 8.368C24.7437 8.52879 24.9007 8.7712 24.9698 8.90669C25.039 9.04219 25.1385 9.33545 25.1911 9.55837C25.2439 9.78246 25.2871 10.2737 25.2876 10.6573L25.2886 11.3509H24.256H23.2235V13.6389V15.927L22.9815 15.993C22.8484 16.0293 22.3825 16.1572 21.9462 16.2772C21.4194 16.4221 21.0969 16.547 20.9861 16.6492C20.8943 16.7338 20.7793 16.8964 20.7307 17.0106C20.661 17.1742 20.6421 17.7354 20.6419 19.6561C20.6417 21.9757 20.6355 22.1041 20.5133 22.3044C20.4427 22.4202 20.2864 22.5619 20.1658 22.6194C20.0207 22.6886 19.8717 22.7098 19.7249 22.6823C19.6021 22.6593 19.419 22.5528 19.3144 22.4438L19.1257 22.2468L19.1078 18.9182C19.0928 16.1098 19.1051 15.5375 19.187 15.2561C19.247 15.0495 19.3726 14.8313 19.5167 14.6829C19.6737 14.5212 20.1474 14.2441 20.9703 13.8323L22.191 13.2214V10.4795V7.73761H21.6116H21.0322L17.9117 9.29531C15.0796 10.7091 14.7699 10.8491 14.5618 10.81C14.4356 10.7864 14.2573 10.6919 14.1654 10.6001C14.0736 10.5082 13.9788 10.3288 13.955 10.2014C13.9233 10.0328 13.9448 9.90744 14.0341 9.74084C14.1454 9.53295 14.381 9.39861 16.6089 8.2727C17.9576 7.59115 19.3515 6.9185 19.7065 6.77803C20.0614 6.63757 20.6422 6.46271 20.9971 6.38948C21.3521 6.31631 21.7441 6.24417 21.8683 6.22927C21.9925 6.21437 22.6169 6.2092 23.2558 6.21785C24.2662 6.2314 24.472 6.2523 24.8368 6.37825ZM5.49151 7.43087C5.68485 7.51933 5.95318 7.70193 6.08786 7.83652C6.22248 7.97118 6.40852 8.24353 6.50132 8.44181C6.63607 8.7299 6.66995 8.89934 6.66995 9.28615C6.66995 9.67296 6.63607 9.8424 6.50132 10.1305C6.40852 10.3288 6.22248 10.6011 6.08786 10.7358C5.95318 10.8704 5.68079 11.0564 5.48248 11.1492C5.19434 11.2839 5.02487 11.3178 4.638 11.3178C4.25112 11.3178 4.08166 11.2839 3.79352 11.1492C3.59521 11.0564 3.32281 10.8704 3.18813 10.7358C3.05352 10.6011 2.87244 10.3361 2.78577 10.1468C2.6991 9.95757 2.61224 9.64799 2.59269 9.45894C2.56984 9.23737 2.59353 8.99032 2.65935 8.76384C2.71556 8.57066 2.84998 8.27902 2.95814 8.11578C3.06623 7.95254 3.27209 7.73768 3.41561 7.63825C3.55907 7.53882 3.82746 7.40358 4.01203 7.33764C4.24764 7.25343 4.46563 7.2255 4.74377 7.24382C4.98009 7.25944 5.28178 7.33486 5.49151 7.43087ZM21.1585 10.7036V12.5728L20.1321 13.0919C19.2449 13.5405 19.0574 13.663 18.7501 13.9949C18.5342 14.2281 18.3353 14.5256 18.2438 14.7522C18.0932 15.1253 18.0931 15.1268 18.0749 18.6511C18.0599 21.5589 18.0727 22.2231 18.1481 22.4418L18.2394 22.7068H14.4309H10.6224L9.95339 23.3262L9.28437 23.9457V22.3598C9.28437 20.9243 9.27153 20.7348 9.14924 20.3623C9.07497 20.136 8.90731 19.8094 8.77663 19.6366C8.64601 19.4639 8.39775 19.2156 8.22494 19.085C8.05212 18.9544 7.72551 18.7868 7.49913 18.7125C7.24048 18.6276 6.92021 18.5774 6.63717 18.5774H6.18679V17.2005C6.18679 15.8361 6.18808 15.823 6.33199 15.7545C6.41182 15.7165 8.17602 14.8841 10.2524 13.9047C12.3287 12.9255 14.1002 12.0709 14.1889 12.0057C14.289 11.9322 14.5094 11.8743 14.7697 11.8534C15.1599 11.8219 15.3961 11.7157 18.1577 10.3305C19.7904 9.51159 21.1335 8.83998 21.1423 8.83804C21.1512 8.83611 21.1585 9.67561 21.1585 10.7036ZM12.8986 10.1088C12.8988 10.2419 12.9282 10.4562 12.964 10.5851C12.9999 10.714 13.1012 10.9255 13.1892 11.0553L13.3493 11.2911L12.4965 11.692C12.0275 11.9125 10.1909 12.7767 8.41511 13.6124L5.18653 15.1319L5.16956 17.3651L5.15258 19.5981L6.13755 19.6209C6.94112 19.6396 7.16414 19.6657 7.34838 19.7632C7.47261 19.8289 7.65679 19.9591 7.75765 20.0526C7.85845 20.1462 8.00365 20.3388 8.08032 20.4808C8.21693 20.734 8.21958 20.7926 8.21958 23.5605V26.3821L8.00862 26.593C7.82703 26.7746 7.75301 26.804 7.47745 26.804C7.20196 26.804 7.12781 26.7746 6.94628 26.5932L6.73532 26.3824L6.70305 24.3556C6.67253 22.4362 6.66375 22.3194 6.53772 22.1508C6.46454 22.0529 6.32457 21.9129 6.22667 21.8398C6.05856 21.7141 5.94027 21.7049 4.10108 21.6745C2.36282 21.6457 2.12921 21.6293 1.92761 21.5219C1.80338 21.4558 1.61921 21.3251 1.51834 21.2316C1.41754 21.138 1.27234 20.9454 1.19568 20.8034C1.05964 20.5513 1.05641 20.4857 1.05641 17.9644C1.05641 15.4796 1.0617 15.3666 1.19935 14.9292C1.27802 14.6793 1.45542 14.3019 1.59359 14.0904C1.73175 13.8789 1.95781 13.593 2.09591 13.4548C2.23408 13.3167 2.51925 13.0912 2.72963 12.9538C2.94 12.8164 3.303 12.6409 3.53629 12.5638C3.908 12.4408 4.13851 12.4204 5.40278 12.3979L6.84516 12.3723L9.82329 11.1251C11.4613 10.4391 12.8232 9.87537 12.8498 9.87234C12.8764 9.8693 12.8984 9.97577 12.8986 10.1088ZM25.2914 12.7865C25.293 13.0083 25.3315 13.294 25.377 13.4214C25.4226 13.5488 25.5399 13.7579 25.6376 13.886C25.7353 14.0142 25.9639 14.193 26.1454 14.2835C26.3812 14.401 26.5789 14.4479 26.8374 14.4479C27.0958 14.4479 27.2935 14.401 27.5293 14.2835C27.7108 14.193 27.9394 14.0142 28.0371 13.886C28.1349 13.7579 28.2521 13.5488 28.2977 13.4214C28.3432 13.294 28.3818 13.0083 28.3833 12.7865L28.3862 12.3832H29.4187H30.4512V14.4479V16.5127H27.3536H24.256V14.4479V12.3832H24.7723H25.2886L25.2914 12.7865ZM23.2235 17.2869V17.545H23.4816H23.7398L23.7426 19.884C23.7447 21.6679 23.7659 22.2803 23.8318 22.4649L23.9181 22.7068H22.7072H21.4963L21.5827 22.4649C21.6487 22.2799 21.6697 21.6586 21.6719 19.8272L21.6747 17.4316L22.3684 17.2356C22.75 17.1279 23.0985 17.0372 23.1428 17.0343C23.1949 17.0308 23.2235 17.1206 23.2235 17.2869ZM26.3073 19.8989L26.2888 22.2528L26.0779 22.4637C25.8963 22.6451 25.8223 22.6746 25.5467 22.6746C25.2711 22.6746 25.1971 22.6451 25.0155 22.4637L24.8046 22.2528L24.7861 19.8989L24.7677 17.545H25.5467H26.3257L26.3073 19.8989ZM2.23563 22.6853L2.57584 22.7251L2.55829 26.6184L2.54067 30.5116L2.34107 30.7112C2.2093 30.8429 2.05571 30.9219 1.88934 30.9438C1.69406 30.9694 1.58649 30.9423 1.41231 30.8241C1.2886 30.7402 1.15108 30.5997 1.10668 30.5121C1.04473 30.3897 1.02582 29.409 1.02511 26.2835L1.02415 22.2142L1.45974 22.4298C1.69929 22.5484 2.04848 22.6634 2.23563 22.6853ZM5.68311 24.6264C5.70047 26.3208 5.71641 26.5733 5.81902 26.7793L5.93524 27.0127L5.51371 27.4097C5.28184 27.628 4.89561 27.9866 4.65536 28.2066C4.4151 28.4265 4.08056 28.737 3.912 28.8965L3.60547 29.1865V25.9466V22.7068H4.63445H5.66343L5.68311 24.6264ZM30.9675 27.3524V30.9657H17.188H3.40858L3.50234 30.7843C3.55397 30.6846 4.29752 29.9548 5.15478 29.1626L6.71338 27.7222L6.9577 27.7954C7.09206 27.8357 7.33141 27.8686 7.48958 27.8686C7.64775 27.8686 7.92002 27.82 8.09458 27.7605C8.3027 27.6896 8.52508 27.5393 8.74004 27.3244C8.955 27.1094 9.1053 26.8871 9.17622 26.679C9.24088 26.4893 9.28437 26.1601 9.28437 25.8608V25.36L10.1628 24.5496L11.0412 23.7392H21.0043H30.9675V27.3524ZM24.7723 29.4172V29.9333H25.2886H25.8048V29.4172V28.901H25.2886H24.7723V29.4172ZM26.8374 29.4172V29.9333H27.3536H27.8699V29.4172V28.901H27.3536H26.8374V29.4172ZM28.9024 29.4172V29.9333H29.4187H29.9349V29.4172V28.901H29.4187H28.9024V29.4172Z"/>
</mask>
<path fillRule="evenodd" clipRule="evenodd" d="M21.9401 0.0969268C21.7489 0.148287 21.4233 0.280493 21.2167 0.390633C21.01 0.500773 20.6834 0.755959 20.4909 0.957721C20.2984 1.15948 20.0647 1.475 19.9716 1.65876C19.8784 1.84258 19.7589 2.15926 19.7059 2.36244C19.653 2.56568 19.6097 2.89398 19.6097 3.09199C19.6097 3.29001 19.653 3.6183 19.7059 3.82155C19.7589 4.02473 19.8761 4.33676 19.9663 4.51491C20.0566 4.69299 20.2351 4.95463 20.3631 5.09619C20.4911 5.23782 20.5844 5.36312 20.5706 5.37461C20.5567 5.38609 20.2405 5.4921 19.8678 5.61018C19.3976 5.7591 18.3609 6.23798 16.4812 7.1744C14.9913 7.91673 13.699 8.57531 13.6095 8.63789C13.5185 8.70158 13.2742 8.76687 13.0552 8.78597C12.7394 8.81352 12.1516 9.03329 10.0135 9.92337C8.55586 10.5301 7.3178 11.0441 7.26217 11.0654C7.18905 11.0934 7.21306 11.0081 7.34858 10.7579C7.45177 10.5675 7.58103 10.2394 7.63588 10.0289C7.69073 9.8184 7.73558 9.48417 7.73558 9.28615C7.73558 9.08813 7.69112 8.75545 7.63678 8.54685C7.58245 8.33819 7.44828 7.99932 7.3387 7.79381C7.22913 7.58824 6.97442 7.2626 6.77262 7.07019C6.57083 6.87772 6.25526 6.64402 6.07147 6.55091C5.88761 6.45774 5.57089 6.33825 5.36767 6.28534C5.16439 6.23237 4.83605 6.18907 4.638 6.18907C4.43994 6.18907 4.10721 6.23353 3.89858 6.28786C3.68988 6.34218 3.35095 6.47633 3.14541 6.58589C2.93981 6.69545 2.61411 6.95011 2.42167 7.15188C2.22917 7.35364 1.99543 7.66915 1.90231 7.85291C1.80913 8.03674 1.68961 8.35341 1.63669 8.55659C1.58371 8.75984 1.54041 9.08813 1.54041 9.28615C1.54041 9.48417 1.58371 9.81246 1.63669 10.0157C1.68961 10.2189 1.80874 10.5347 1.90134 10.7175C1.99401 10.9003 2.2193 11.209 2.40206 11.4035C2.60572 11.6202 2.7031 11.7679 2.65367 11.7851C2.6094 11.8006 2.36256 11.9511 2.10514 12.1197C1.84778 12.2882 1.45774 12.6185 1.23846 12.8538C1.01911 13.089 0.732135 13.4738 0.600681 13.7088C0.469227 13.9438 0.285695 14.3587 0.192768 14.6307L0.0238848 15.1254L0.00620276 22.7984C-0.00947876 29.6034 -5.69188e-05 30.5057 0.0890632 30.7741C0.144303 30.9405 0.293504 31.198 0.420505 31.3463C0.547506 31.4947 0.800604 31.6947 0.982975 31.7909L1.31455 31.9658L16.6573 31.9824L32 31.9991V27.353V22.7068H29.5876H27.1753L27.2616 22.4649C27.3275 22.2803 27.3487 21.6679 27.3508 19.884L27.3536 17.545H29.4187H31.4837V14.4479V11.3509H29.9419H28.4001L28.3736 10.1411C28.3484 8.98935 28.3376 8.90411 28.1482 8.366C28.0388 8.05506 27.8516 7.63528 27.7321 7.43313C27.6127 7.23098 27.2972 6.84391 27.031 6.57292C26.7545 6.29153 26.3532 5.96763 26.0952 5.81768C25.8468 5.67322 25.4838 5.5021 25.2886 5.43739C25.0934 5.37267 24.9225 5.31305 24.9089 5.30492C24.8953 5.29673 24.9753 5.18639 25.0865 5.05974C25.1978 4.93301 25.3616 4.6857 25.4505 4.5102C25.5395 4.33463 25.6556 4.02473 25.7085 3.82155C25.7615 3.6183 25.8048 3.29001 25.8048 3.09199C25.8048 2.89398 25.7615 2.56568 25.7085 2.36244C25.6556 2.15926 25.5361 1.84258 25.4429 1.65876C25.3498 1.475 25.1161 1.15948 24.9236 0.957721C24.7311 0.755959 24.4054 0.501289 24.1998 0.39173C23.9943 0.282171 23.6554 0.148029 23.4467 0.0937007C23.238 0.0393728 22.8919 -0.00314751 22.6776 -0.000824706C22.4632 0.0014981 22.1314 0.0455024 21.9401 0.0969268ZM23.5608 1.23672C23.7541 1.32518 24.0224 1.50777 24.1571 1.64237C24.2917 1.77703 24.4778 2.04938 24.5706 2.24765C24.7053 2.53575 24.7392 2.70518 24.7392 3.09199C24.7392 3.47965 24.7057 3.6465 24.571 3.93079C24.4785 4.12597 24.2899 4.39851 24.1519 4.53646C24.014 4.67441 23.7414 4.86191 23.5462 4.95315C23.2668 5.08374 23.0882 5.11961 22.7072 5.12174C22.3162 5.12387 22.154 5.09193 21.8628 4.9554C21.6645 4.86243 21.3921 4.67621 21.2574 4.54162C21.1228 4.40696 20.9417 4.14197 20.855 3.95266C20.7684 3.76342 20.6815 3.45384 20.6619 3.26479C20.6391 3.04322 20.6628 2.79616 20.7286 2.56969C20.7848 2.3765 20.9192 2.08486 21.0274 1.92162C21.1355 1.75838 21.3413 1.54352 21.4849 1.44409C21.6283 1.34466 21.8967 1.20942 22.0813 1.14348C22.3169 1.05928 22.5349 1.03134 22.813 1.04967C23.0493 1.06528 23.351 1.14071 23.5608 1.23672ZM24.8368 6.37825C25.0675 6.45787 25.4201 6.62228 25.6203 6.74358C25.8206 6.86488 26.1591 7.15084 26.3725 7.379C26.586 7.60715 26.8507 7.97718 26.9607 8.20127C27.0708 8.42536 27.2037 8.81191 27.2561 9.06032C27.3268 9.39545 27.3517 9.97473 27.3525 11.3054L27.3536 13.0988L27.1952 13.2572C27.0954 13.3571 26.9631 13.4156 26.8374 13.4156C26.7116 13.4156 26.5794 13.3571 26.4795 13.2572L26.3211 13.0988V11.4286C26.3211 9.98848 26.3039 9.69122 26.1962 9.27041C26.1276 9.00199 25.9937 8.62712 25.8987 8.43742C25.8038 8.24773 25.6122 7.94002 25.4729 7.75374C25.3337 7.5674 25.1854 7.415 25.1433 7.415C25.1012 7.415 24.9162 7.56366 24.7322 7.74529L24.3977 8.07564L24.6209 8.368C24.7437 8.52879 24.9007 8.7712 24.9698 8.90669C25.039 9.04219 25.1385 9.33545 25.1911 9.55837C25.2439 9.78246 25.2871 10.2737 25.2876 10.6573L25.2886 11.3509H24.256H23.2235V13.6389V15.927L22.9815 15.993C22.8484 16.0293 22.3825 16.1572 21.9462 16.2772C21.4194 16.4221 21.0969 16.547 20.9861 16.6492C20.8943 16.7338 20.7793 16.8964 20.7307 17.0106C20.661 17.1742 20.6421 17.7354 20.6419 19.6561C20.6417 21.9757 20.6355 22.1041 20.5133 22.3044C20.4427 22.4202 20.2864 22.5619 20.1658 22.6194C20.0207 22.6886 19.8717 22.7098 19.7249 22.6823C19.6021 22.6593 19.419 22.5528 19.3144 22.4438L19.1257 22.2468L19.1078 18.9182C19.0928 16.1098 19.1051 15.5375 19.187 15.2561C19.247 15.0495 19.3726 14.8313 19.5167 14.6829C19.6737 14.5212 20.1474 14.2441 20.9703 13.8323L22.191 13.2214V10.4795V7.73761H21.6116H21.0322L17.9117 9.29531C15.0796 10.7091 14.7699 10.8491 14.5618 10.81C14.4356 10.7864 14.2573 10.6919 14.1654 10.6001C14.0736 10.5082 13.9788 10.3288 13.955 10.2014C13.9233 10.0328 13.9448 9.90744 14.0341 9.74084C14.1454 9.53295 14.381 9.39861 16.6089 8.2727C17.9576 7.59115 19.3515 6.9185 19.7065 6.77803C20.0614 6.63757 20.6422 6.46271 20.9971 6.38948C21.3521 6.31631 21.7441 6.24417 21.8683 6.22927C21.9925 6.21437 22.6169 6.2092 23.2558 6.21785C24.2662 6.2314 24.472 6.2523 24.8368 6.37825ZM5.49151 7.43087C5.68485 7.51933 5.95318 7.70193 6.08786 7.83652C6.22248 7.97118 6.40852 8.24353 6.50132 8.44181C6.63607 8.7299 6.66995 8.89934 6.66995 9.28615C6.66995 9.67296 6.63607 9.8424 6.50132 10.1305C6.40852 10.3288 6.22248 10.6011 6.08786 10.7358C5.95318 10.8704 5.68079 11.0564 5.48248 11.1492C5.19434 11.2839 5.02487 11.3178 4.638 11.3178C4.25112 11.3178 4.08166 11.2839 3.79352 11.1492C3.59521 11.0564 3.32281 10.8704 3.18813 10.7358C3.05352 10.6011 2.87244 10.3361 2.78577 10.1468C2.6991 9.95757 2.61224 9.64799 2.59269 9.45894C2.56984 9.23737 2.59353 8.99032 2.65935 8.76384C2.71556 8.57066 2.84998 8.27902 2.95814 8.11578C3.06623 7.95254 3.27209 7.73768 3.41561 7.63825C3.55907 7.53882 3.82746 7.40358 4.01203 7.33764C4.24764 7.25343 4.46563 7.2255 4.74377 7.24382C4.98009 7.25944 5.28178 7.33486 5.49151 7.43087ZM21.1585 10.7036V12.5728L20.1321 13.0919C19.2449 13.5405 19.0574 13.663 18.7501 13.9949C18.5342 14.2281 18.3353 14.5256 18.2438 14.7522C18.0932 15.1253 18.0931 15.1268 18.0749 18.6511C18.0599 21.5589 18.0727 22.2231 18.1481 22.4418L18.2394 22.7068H14.4309H10.6224L9.95339 23.3262L9.28437 23.9457V22.3598C9.28437 20.9243 9.27153 20.7348 9.14924 20.3623C9.07497 20.136 8.90731 19.8094 8.77663 19.6366C8.64601 19.4639 8.39775 19.2156 8.22494 19.085C8.05212 18.9544 7.72551 18.7868 7.49913 18.7125C7.24048 18.6276 6.92021 18.5774 6.63717 18.5774H6.18679V17.2005C6.18679 15.8361 6.18808 15.823 6.33199 15.7545C6.41182 15.7165 8.17602 14.8841 10.2524 13.9047C12.3287 12.9255 14.1002 12.0709 14.1889 12.0057C14.289 11.9322 14.5094 11.8743 14.7697 11.8534C15.1599 11.8219 15.3961 11.7157 18.1577 10.3305C19.7904 9.51159 21.1335 8.83998 21.1423 8.83804C21.1512 8.83611 21.1585 9.67561 21.1585 10.7036ZM12.8986 10.1088C12.8988 10.2419 12.9282 10.4562 12.964 10.5851C12.9999 10.714 13.1012 10.9255 13.1892 11.0553L13.3493 11.2911L12.4965 11.692C12.0275 11.9125 10.1909 12.7767 8.41511 13.6124L5.18653 15.1319L5.16956 17.3651L5.15258 19.5981L6.13755 19.6209C6.94112 19.6396 7.16414 19.6657 7.34838 19.7632C7.47261 19.8289 7.65679 19.9591 7.75765 20.0526C7.85845 20.1462 8.00365 20.3388 8.08032 20.4808C8.21693 20.734 8.21958 20.7926 8.21958 23.5605V26.3821L8.00862 26.593C7.82703 26.7746 7.75301 26.804 7.47745 26.804C7.20196 26.804 7.12781 26.7746 6.94628 26.5932L6.73532 26.3824L6.70305 24.3556C6.67253 22.4362 6.66375 22.3194 6.53772 22.1508C6.46454 22.0529 6.32457 21.9129 6.22667 21.8398C6.05856 21.7141 5.94027 21.7049 4.10108 21.6745C2.36282 21.6457 2.12921 21.6293 1.92761 21.5219C1.80338 21.4558 1.61921 21.3251 1.51834 21.2316C1.41754 21.138 1.27234 20.9454 1.19568 20.8034C1.05964 20.5513 1.05641 20.4857 1.05641 17.9644C1.05641 15.4796 1.0617 15.3666 1.19935 14.9292C1.27802 14.6793 1.45542 14.3019 1.59359 14.0904C1.73175 13.8789 1.95781 13.593 2.09591 13.4548C2.23408 13.3167 2.51925 13.0912 2.72963 12.9538C2.94 12.8164 3.303 12.6409 3.53629 12.5638C3.908 12.4408 4.13851 12.4204 5.40278 12.3979L6.84516 12.3723L9.82329 11.1251C11.4613 10.4391 12.8232 9.87537 12.8498 9.87234C12.8764 9.8693 12.8984 9.97577 12.8986 10.1088ZM25.2914 12.7865C25.293 13.0083 25.3315 13.294 25.377 13.4214C25.4226 13.5488 25.5399 13.7579 25.6376 13.886C25.7353 14.0142 25.9639 14.193 26.1454 14.2835C26.3812 14.401 26.5789 14.4479 26.8374 14.4479C27.0958 14.4479 27.2935 14.401 27.5293 14.2835C27.7108 14.193 27.9394 14.0142 28.0371 13.886C28.1349 13.7579 28.2521 13.5488 28.2977 13.4214C28.3432 13.294 28.3818 13.0083 28.3833 12.7865L28.3862 12.3832H29.4187H30.4512V14.4479V16.5127H27.3536H24.256V14.4479V12.3832H24.7723H25.2886L25.2914 12.7865ZM23.2235 17.2869V17.545H23.4816H23.7398L23.7426 19.884C23.7447 21.6679 23.7659 22.2803 23.8318 22.4649L23.9181 22.7068H22.7072H21.4963L21.5827 22.4649C21.6487 22.2799 21.6697 21.6586 21.6719 19.8272L21.6747 17.4316L22.3684 17.2356C22.75 17.1279 23.0985 17.0372 23.1428 17.0343C23.1949 17.0308 23.2235 17.1206 23.2235 17.2869ZM26.3073 19.8989L26.2888 22.2528L26.0779 22.4637C25.8963 22.6451 25.8223 22.6746 25.5467 22.6746C25.2711 22.6746 25.1971 22.6451 25.0155 22.4637L24.8046 22.2528L24.7861 19.8989L24.7677 17.545H25.5467H26.3257L26.3073 19.8989ZM2.23563 22.6853L2.57584 22.7251L2.55829 26.6184L2.54067 30.5116L2.34107 30.7112C2.2093 30.8429 2.05571 30.9219 1.88934 30.9438C1.69406 30.9694 1.58649 30.9423 1.41231 30.8241C1.2886 30.7402 1.15108 30.5997 1.10668 30.5121C1.04473 30.3897 1.02582 29.409 1.02511 26.2835L1.02415 22.2142L1.45974 22.4298C1.69929 22.5484 2.04848 22.6634 2.23563 22.6853ZM5.68311 24.6264C5.70047 26.3208 5.71641 26.5733 5.81902 26.7793L5.93524 27.0127L5.51371 27.4097C5.28184 27.628 4.89561 27.9866 4.65536 28.2066C4.4151 28.4265 4.08056 28.737 3.912 28.8965L3.60547 29.1865V25.9466V22.7068H4.63445H5.66343L5.68311 24.6264ZM30.9675 27.3524V30.9657H17.188H3.40858L3.50234 30.7843C3.55397 30.6846 4.29752 29.9548 5.15478 29.1626L6.71338 27.7222L6.9577 27.7954C7.09206 27.8357 7.33141 27.8686 7.48958 27.8686C7.64775 27.8686 7.92002 27.82 8.09458 27.7605C8.3027 27.6896 8.52508 27.5393 8.74004 27.3244C8.955 27.1094 9.1053 26.8871 9.17622 26.679C9.24088 26.4893 9.28437 26.1601 9.28437 25.8608V25.36L10.1628 24.5496L11.0412 23.7392H21.0043H30.9675V27.3524ZM24.7723 29.4172V29.9333H25.2886H25.8048V29.4172V28.901H25.2886H24.7723V29.4172ZM26.8374 29.4172V29.9333H27.3536H27.8699V29.4172V28.901H27.3536H26.8374V29.4172ZM28.9024 29.4172V29.9333H29.4187H29.9349V29.4172V28.901H29.4187H28.9024V29.4172Z" fill="#1F1F1F" stroke="#A0CBFF" stroke-opacity="0.25" strokeWidth="0.0973171" mask="url(#path-1-inside-1_178_172)"/>
</svg>
