<svg width="34" height="33" viewBox="0 0 34 33" fill="none" xmlns="http://www.w3.org/2000/svg">
<path fillRule="evenodd" clipRule="evenodd" d="M14.9589 32.4751C14.5069 32.2615 14.3868 32.0995 13.9221 31.0765C13.6331 30.4402 13.2751 29.6424 13.1266 29.3039C12.9781 28.9652 12.8566 28.6306 12.8566 28.5603C12.8566 28.4899 12.6873 28.3431 12.4805 28.2341C12.2736 28.1251 12.0058 28.0359 11.8855 28.0359C11.7653 28.0359 10.9561 28.3574 10.0875 28.7503C9.03009 29.2288 8.33998 29.4648 7.99882 29.4648C7.7186 29.4648 7.33447 29.3824 7.14502 29.2814C6.9557 29.1806 6.2415 28.5165 5.55777 27.8057C4.34164 26.5413 4.31474 26.5002 4.31474 25.9028C4.31474 25.4608 4.50802 24.8115 5.01466 23.5514C5.56338 22.1869 5.69023 21.7451 5.60163 21.5079C5.53954 21.3413 5.41103 21.1441 5.31605 21.0698C5.22107 20.9954 4.94263 20.8603 4.69721 20.7697C4.45179 20.6791 4.13626 20.5585 3.99602 20.5019C3.85578 20.4452 3.45418 20.2953 3.10359 20.1689C2.75299 20.0425 2.2582 19.8065 2.00398 19.6442C1.74977 19.482 1.41982 19.1913 1.27092 18.9983C1.0218 18.6757 1 18.4892 1 16.6804C1 15.0946 1.03927 14.6561 1.2022 14.4191C1.31337 14.2573 1.61463 13.9922 1.87152 13.8301C2.12841 13.6679 2.53944 13.457 2.78486 13.3614C3.03028 13.2656 3.41759 13.1084 3.64542 13.012C3.87337 12.9155 4.27496 12.7462 4.53785 12.6356C4.80086 12.525 5.09982 12.3886 5.2022 12.3324C5.3047 12.2761 5.45884 12.0543 5.54489 11.8396C5.68908 11.4796 5.65109 11.3432 5.06005 10.0968C4.70728 9.35305 4.35732 8.45006 4.28236 8.09022C4.20739 7.73024 4.18738 7.2679 4.23786 7.06264C4.29001 6.85089 4.70486 6.31892 5.19659 5.83333C5.67315 5.36241 6.32832 4.72872 6.65227 4.42513C7.14043 3.96759 7.32861 3.87302 7.75149 3.87302C8.03222 3.87302 8.50674 3.96708 8.80621 4.08204C9.10556 4.19714 9.52271 4.36369 9.73307 4.45228C9.94343 4.54101 10.3163 4.69053 10.5618 4.78471C10.8072 4.87877 11.0806 5.01244 11.1695 5.08168C11.2582 5.15092 11.5524 5.20757 11.8229 5.20757C12.0934 5.20757 12.381 5.16574 12.4622 5.11468C12.5433 5.0635 12.7157 4.77783 12.8452 4.47982C12.9748 4.18181 13.2088 3.61645 13.3653 3.22348C13.5217 2.83051 13.7799 2.2167 13.9391 1.85945C14.0982 1.5022 14.3543 1.09456 14.5082 0.953606C14.7624 0.720812 14.9816 0.696777 16.9018 0.691839C18.1262 0.688721 19.1281 0.743416 19.2827 0.82201C19.4296 0.896576 19.7506 1.3658 19.996 1.86452C20.2414 2.36336 20.5116 2.94626 20.5964 3.15983C20.6811 3.37353 20.8924 3.87731 21.066 4.2795C21.3159 4.85863 21.4667 5.04102 21.7913 5.15638C22.1646 5.28901 22.3381 5.23939 23.744 4.5979C24.5925 4.21065 25.4982 3.85405 25.7567 3.8056C26.0152 3.75701 26.4187 3.78209 26.6543 3.86133C26.8897 3.94044 27.3523 4.27652 27.6825 4.6083C28.1133 5.04102 28.2829 5.31383 28.2829 5.57403C28.2829 5.80163 28.1773 6.01221 27.9995 6.139C27.8437 6.2502 27.6526 6.34127 27.5749 6.34127C27.4973 6.34127 27.1802 6.10822 26.8703 5.82346C26.5479 5.52714 26.1764 5.30486 26.0019 5.30383C25.8342 5.30279 25.2318 5.52519 24.6633 5.79799C24.0947 6.07067 23.3122 6.42688 22.9243 6.58952L22.2192 6.88506L21.2885 6.51573C20.6604 6.26644 20.2992 6.04079 20.1777 5.82164C20.0785 5.64301 19.7964 5.04362 19.5506 4.48956C19.3048 3.93551 19.1036 3.45004 19.1036 3.41068C19.1036 3.37132 18.9874 3.07929 18.8454 2.76166L18.5873 2.18422H16.9974H15.4076L15.1583 2.73633C15.0212 3.04005 14.7317 3.74896 14.5151 4.31185C14.2984 4.87474 14.035 5.50505 13.9297 5.71265C13.8068 5.95479 13.4995 6.20123 13.0722 6.40038C12.706 6.57107 12.2533 6.74996 12.0663 6.79777C11.812 6.86272 11.2377 6.68344 9.79095 6.08756L7.85578 5.29032L7.07337 6.02871C6.64296 6.4348 6.13517 6.93287 5.94483 7.13565C5.60545 7.49706 5.60239 7.51472 5.78827 8.05137C5.89243 8.35237 6.24073 9.15676 6.56214 9.83916C6.88354 10.5214 7.15012 11.2558 7.15458 11.4709C7.15904 11.6862 7.016 12.1859 6.83675 12.5813C6.65737 12.9767 6.43248 13.3645 6.33699 13.4429C6.2415 13.5214 5.4749 13.8633 4.63347 14.2028C3.79203 14.5422 2.94588 14.9014 2.75299 15.0008L2.40239 15.1816V16.6563C2.40239 17.6871 2.45096 18.1721 2.56367 18.2674C2.6524 18.3425 3.35525 18.646 4.12542 18.9418C4.89571 19.2376 5.73778 19.5707 5.99672 19.682C6.36351 19.8397 6.53868 20.0377 6.79022 20.579C6.96768 20.961 7.14693 21.4116 7.18849 21.5802C7.24 21.7896 7.01842 22.4889 6.49061 23.7825C6.06518 24.8251 5.71713 25.7329 5.71713 25.7998C5.71713 25.8668 6.20682 26.4006 6.80526 26.9859C7.70151 27.8627 7.94324 28.0351 8.17578 27.963C8.33106 27.9148 8.74502 27.744 9.09562 27.5833C9.44622 27.4226 10.0199 27.1643 10.3705 27.0093C10.7211 26.8545 11.1075 26.6713 11.2293 26.6023C11.351 26.5333 11.6073 26.477 11.7988 26.477C11.9903 26.477 12.4069 26.5752 12.7249 26.6951C13.0427 26.815 13.4606 27.0236 13.6534 27.1586C13.8462 27.2936 14.004 27.4567 14.004 27.5212C14.004 27.5857 14.1557 27.9764 14.3412 28.3892C14.5267 28.8022 14.8584 29.5785 15.0786 30.1144L15.4788 31.0887L16.9862 31.1255C17.9627 31.1492 18.5544 31.1109 18.6658 31.0166C18.7604 30.9366 19.1582 30.0363 19.5497 29.016L20.2617 27.1609L21.0532 26.8185C21.4884 26.6303 22.0175 26.4764 22.2288 26.4766C22.44 26.4768 23.283 26.7621 24.102 27.1105C24.921 27.4591 25.7431 27.7831 25.929 27.8306C26.2245 27.9062 26.3975 27.7903 27.3068 26.9084C27.8787 26.3536 28.366 25.8203 28.3898 25.7234C28.4135 25.6265 28.3604 25.3617 28.2718 25.1351C28.1832 24.9086 27.8339 24.1293 27.4956 23.4032C27.1573 22.6773 26.8805 21.9429 26.8805 21.7713C26.8805 21.5997 26.9973 21.2 27.1401 20.8829C27.2827 20.5658 27.4441 20.2187 27.4987 20.1115C27.5532 20.0043 27.8252 19.7997 28.103 19.6568C28.3809 19.5139 29.2809 19.1142 30.1029 18.7684L31.5976 18.1397V16.6007V15.0616L30.9283 14.696C30.394 14.4044 30.2505 14.2562 30.2175 13.9619C30.1931 13.7438 30.2662 13.4916 30.3967 13.3449C30.518 13.2082 30.6975 13.0965 30.7958 13.0965C30.8941 13.0965 31.3298 13.2738 31.7641 13.4904C32.1985 13.707 32.6542 14.0058 32.7769 14.1543C32.9697 14.3876 33 14.716 33 16.5706V18.7168L32.5765 19.1219C32.3155 19.3714 31.5098 19.7941 30.477 20.2231C29.5552 20.6059 28.7488 20.9859 28.6851 21.0675C28.6212 21.1489 28.5291 21.3489 28.48 21.5115C28.4153 21.7266 28.5813 22.2227 29.0889 23.3302C29.4726 24.1679 29.8242 25.0896 29.8702 25.3786C29.9161 25.6676 29.8957 26.0596 29.8249 26.2496C29.754 26.4397 29.1149 27.1678 28.4046 27.8676C27.6944 28.5674 26.9699 29.2178 26.7943 29.3126C26.5354 29.4528 26.3527 29.4552 25.8223 29.3256C25.463 29.2378 24.5646 28.906 23.8257 28.5882C23.0866 28.2705 22.3538 28.0088 22.1971 28.0069C22.0404 28.0049 21.7774 28.0934 21.6126 28.2034C21.4308 28.3248 21.2007 28.7271 21.0273 29.2265C20.8702 29.6791 20.6015 30.3709 20.4302 30.7639C20.259 31.1569 20.0383 31.6246 19.9398 31.8032C19.8412 31.9818 19.6088 32.2449 19.4233 32.3878C19.1287 32.6146 18.8565 32.652 17.2781 32.6821C15.7366 32.7116 15.3948 32.6811 14.9589 32.4751ZM15.3829 24.5411C14.844 24.4175 13.956 24.0913 13.4096 23.8161C12.6764 23.4469 12.1601 23.0549 11.4394 22.3207C10.677 21.5437 10.3497 21.0857 9.947 20.2314C9.66333 19.6295 9.34129 18.6865 9.23152 18.1359C9.12175 17.5852 9.03187 16.8958 9.03187 16.604C9.03187 16.3122 9.12214 15.6228 9.23241 15.0721C9.34269 14.5214 9.63133 13.6479 9.87369 13.131C10.116 12.6141 10.5944 11.8483 10.9367 11.4292C11.279 11.0102 11.8367 10.4619 12.176 10.211C12.5153 9.95998 13.051 9.61001 13.3665 9.43307C13.6821 9.25601 14.2271 9.01776 14.5777 8.90344C14.9283 8.78912 15.6385 8.6318 16.1561 8.55386C16.9546 8.43369 17.1428 8.44266 17.3992 8.61387C17.6021 8.74937 17.7012 8.93929 17.7012 9.193C17.7012 9.40059 17.6171 9.65612 17.5142 9.76096C17.4059 9.87125 16.9361 9.98999 16.3986 10.0429C15.8554 10.0964 15.1151 10.2846 14.6144 10.4965C14.1437 10.6956 13.472 11.0732 13.1215 11.3353C12.7709 11.5975 12.3164 12.0278 12.1113 12.2918L11.7382 12.7717H12.6602H13.5821L15.2274 13.7973C16.1322 14.3614 17.0446 14.9225 17.255 15.0443C17.4653 15.166 17.932 15.4507 18.2919 15.6767C18.6524 15.9033 19.0244 16.0498 19.1205 16.003C19.2164 15.9564 19.6542 15.5267 20.0933 15.0482L20.8919 14.1781L19.9958 13.5398C19.5029 13.1888 19.067 12.7755 19.0271 12.6214C18.9871 12.4673 19.0145 12.2267 19.088 12.087C19.1615 11.947 19.5536 11.6681 19.9594 11.467C20.3652 11.2661 22.6101 10.1474 24.9481 8.98125C27.2861 7.81507 29.3283 6.8609 29.4861 6.8609C29.6441 6.8609 29.8784 6.97938 30.007 7.12409C30.2322 7.37767 30.2326 7.43366 30.0194 8.65051C29.8977 9.34525 29.7473 10.1768 29.6855 10.4983C29.6236 10.8198 29.4822 11.609 29.3713 12.2521C29.2602 12.8951 29.1137 13.7428 29.0455 14.1357C28.9772 14.5287 28.8403 15.2887 28.7411 15.8245C28.6419 16.3604 28.4907 17.2373 28.4051 17.7731C28.2992 18.4362 28.1689 18.8201 27.997 18.9748C27.8582 19.0999 27.6452 19.2021 27.5237 19.2021C27.4022 19.2021 26.8314 18.8162 26.2554 18.3445C25.2856 17.5501 25.1917 17.502 24.9853 17.6922C24.8628 17.8052 23.9052 18.7801 22.8574 19.8586C21.8096 20.937 20.7588 21.9028 20.5223 22.0048C20.2858 22.1066 19.7855 22.19 19.4106 22.19C18.952 22.19 18.5711 22.0997 18.2469 21.9142C17.9818 21.7625 16.7793 21.0318 15.5747 20.2904C14.37 19.549 13.3373 18.9426 13.2798 18.9428C13.2223 18.9431 12.9029 19.2868 12.5697 19.7068C12.2366 20.1268 11.9641 20.5595 11.9641 20.6687C11.9641 20.7777 12.253 21.1315 12.6061 21.4549C12.9591 21.7783 13.5156 22.1953 13.8428 22.3818C14.1701 22.5682 14.78 22.835 15.1982 22.9749C15.6164 23.1148 16.2231 23.2293 16.5465 23.2293C16.8724 23.2293 17.2608 23.3194 17.4178 23.4315C17.5993 23.5611 17.7012 23.7685 17.7012 24.0087C17.7012 24.2489 17.5993 24.4564 17.4178 24.5859C17.262 24.6971 16.9609 24.7831 16.7485 24.7769C16.5362 24.7706 15.9217 24.6645 15.3829 24.5411ZM22.3751 18.23C23.8405 16.7092 24.9143 15.6946 25.0588 15.6946C25.1912 15.6946 25.6556 15.9869 26.0907 16.3442C26.5258 16.7014 26.9389 16.9937 27.0086 16.9937C27.0783 16.9937 27.1355 16.8538 27.1355 16.6828C27.1355 16.5119 27.2227 15.9126 27.3294 15.3513C27.436 14.7899 27.5795 14.0091 27.6482 13.6161C27.7169 13.2231 27.8558 12.4339 27.9567 11.8623C28.0577 11.2908 28.2113 10.4293 28.2983 9.94803C28.3852 9.46672 28.4276 9.04361 28.3924 9.00775C28.3572 8.9719 27.558 9.32837 26.6163 9.79993C25.6748 10.2715 24.0868 11.0596 23.0877 11.5515C22.0884 12.0432 21.2709 12.4946 21.2709 12.5545C21.2709 12.6145 21.5865 12.885 21.9721 13.1557C22.5734 13.5775 22.6727 13.7057 22.6687 14.0541C22.6649 14.3952 22.4114 14.7267 21.0922 16.1168C19.8526 17.4229 19.4486 17.7731 19.1808 17.7731C18.9858 17.7731 18.3246 17.4415 17.6271 16.9937C16.9593 16.565 16.3869 16.2143 16.3549 16.2143C16.323 16.2143 15.6232 15.7853 14.7998 15.2611C13.9764 14.7368 13.1428 14.2675 12.9473 14.2181C12.7189 14.1604 12.4454 14.2022 12.1824 14.335C11.9571 14.4485 11.5005 14.8831 11.1673 15.3005C10.5861 16.0289 10.5618 16.0927 10.5632 16.8838C10.5639 17.3372 10.6478 17.9879 10.7497 18.3298C10.8514 18.6717 10.9683 19.0069 11.0094 19.0746C11.0506 19.1424 11.4312 18.7749 11.8554 18.2581C12.2797 17.7413 12.736 17.2765 12.8693 17.2252C13.0027 17.1739 13.2121 17.1697 13.3348 17.216C13.4574 17.2622 14.0167 17.5919 14.5777 17.9488C15.1386 18.3056 16.3998 19.0843 17.38 19.6793C18.5468 20.3873 19.2956 20.7618 19.5474 20.7632C19.8801 20.7653 20.2636 20.4217 22.3751 18.23Z" fill="#1F1F1F" stroke="#A0CBFF" stroke-opacity="0.25" strokeWidth="0.3"/>
</svg>
