<svg width="25" height="24" viewBox="0 0 25 24" fill="none" xmlns="http://www.w3.org/2000/svg">
<path fillRule="evenodd" clipRule="evenodd" d="M12.1955 0.0546974C12.0832 0.0913346 11.8971 0.176482 11.782 0.243989C11.6669 0.311448 11.4684 0.478254 11.3409 0.614626C11.2133 0.750998 11.0505 0.987249 10.9791 1.13966C10.8642 1.38507 10.8493 1.47497 10.8493 1.92562C10.8493 2.37699 10.864 2.46597 10.9799 2.71327C11.0518 2.8666 11.2245 3.11264 11.3639 3.26006C11.5232 3.42847 11.7293 3.58151 11.9185 3.67184C12.0842 3.75093 12.2547 3.81563 12.2976 3.81563C12.3659 3.81563 12.3754 3.91289 12.3754 4.61229V5.40891L12.1453 5.43775C12.0187 5.45354 11.7301 5.50065 11.504 5.54237C11.2779 5.5841 10.8964 5.68403 10.6562 5.76447C10.416 5.84497 10.0452 5.99835 9.83225 6.1054C9.61927 6.21246 9.28682 6.40689 9.09341 6.53739C8.90005 6.66795 8.66382 6.84324 8.56847 6.92693L8.39517 7.0792L6.60634 5.28989L4.81751 3.50058L4.91436 3.24567C4.97177 3.09452 5.01121 2.87334 5.01121 2.70231C5.01121 2.52567 4.97076 2.30575 4.90685 2.13492C4.83612 1.94583 4.72246 1.77587 4.5541 1.60746C4.38574 1.43906 4.21583 1.32537 4.02678 1.25461C3.85653 1.19089 3.63614 1.15023 3.46085 1.15023C3.28556 1.15023 3.06517 1.19089 2.89492 1.25461C2.70587 1.32537 2.53596 1.43906 2.3676 1.60746C2.19924 1.77587 2.08558 1.94583 2.01485 2.13492C1.95114 2.30522 1.91049 2.52567 1.91049 2.70101C1.91049 2.87634 1.95114 3.09679 2.01485 3.26709C2.08558 3.45619 2.19924 3.62614 2.3676 3.79455C2.53596 3.96295 2.70587 4.07664 2.89492 4.1474C3.0657 4.21132 3.28556 4.25179 3.46216 4.25179C3.63313 4.25179 3.85425 4.21234 4.00537 4.15491L4.26021 4.05804L6.04865 5.84701L7.83713 7.63593L7.64169 7.87024C7.53418 7.99905 7.34809 8.25716 7.22808 8.44374C7.10808 8.63032 6.93332 8.93563 6.83981 9.1222C6.74626 9.30878 6.60392 9.658 6.52349 9.89827C6.44307 10.1385 6.34317 10.5202 6.30145 10.7464C6.25974 10.9725 6.21265 11.2612 6.19685 11.3878L6.16802 11.618H5.75921C5.36818 11.618 5.35026 11.6132 5.34808 11.509C5.34687 11.449 5.29779 11.2853 5.23907 11.1453C5.1804 11.0052 5.038 10.7619 4.92265 10.6045C4.80734 10.4471 4.58738 10.2301 4.43385 10.1224C4.28031 10.0147 4.03671 9.87734 3.89253 9.8172C3.67204 9.72522 3.54195 9.70787 3.07326 9.70796C2.60781 9.70811 2.47032 9.72628 2.23786 9.81831C2.08481 9.87894 1.83384 10.0231 1.68007 10.1387C1.52634 10.2543 1.30924 10.4722 1.19766 10.6228C1.08609 10.7734 0.945245 11.0208 0.884635 11.1725C0.79234 11.4035 0.774414 11.5391 0.774414 12.0057C0.774414 12.4723 0.79234 12.6079 0.884635 12.8388C0.945245 12.9905 1.08609 13.2379 1.19766 13.3886C1.30924 13.5392 1.52634 13.757 1.68007 13.8726C1.83384 13.9883 2.08481 14.1322 2.23786 14.1925C2.46489 14.2819 2.61421 14.3026 3.04904 14.3049C3.49089 14.3071 3.63168 14.2887 3.87286 14.1971C4.03284 14.1364 4.29117 13.9913 4.44693 13.8748C4.60264 13.7583 4.82473 13.5364 4.94038 13.3817C5.05608 13.227 5.19566 12.983 5.25055 12.8395C5.30544 12.696 5.35035 12.5369 5.35035 12.486C5.35035 12.4022 5.38902 12.3934 5.75921 12.3934H6.16802L6.19685 12.6236C6.21265 12.7502 6.25974 13.0388 6.30145 13.265C6.34317 13.4912 6.44307 13.8728 6.52349 14.1131C6.60397 14.3534 6.75721 14.7244 6.86409 14.9376C6.97097 15.1509 7.19189 15.5212 7.35502 15.7607C7.51819 16.0001 7.86005 16.4048 8.1147 16.66C8.37249 16.9183 8.77936 17.2589 9.03265 17.4283C9.28284 17.5957 9.65222 17.8155 9.85352 17.9166C10.0548 18.0178 10.416 18.1664 10.6562 18.2469C10.8964 18.3273 11.2779 18.4273 11.504 18.469C11.7301 18.5107 12.0187 18.5578 12.1453 18.5736L12.3754 18.6025V19.3991C12.3754 20.0985 12.3659 20.1957 12.2976 20.1957C12.2547 20.1957 12.0842 20.2604 11.9185 20.3395C11.7293 20.4299 11.5232 20.5829 11.3639 20.7513C11.2245 20.8987 11.0518 21.1448 10.9799 21.2981C10.864 21.5454 10.8493 21.6344 10.8493 22.0858C10.8493 22.5371 10.864 22.6261 10.9799 22.8734C11.0518 23.0267 11.2242 23.2724 11.3631 23.4194C11.5214 23.5867 11.7348 23.7452 11.9341 23.8433C12.2317 23.9899 12.2852 24 12.763 24C13.2408 24 13.2943 23.9899 13.592 23.8433C13.7912 23.7452 14.0047 23.5867 14.1629 23.4194C14.3018 23.2724 14.4743 23.0267 14.5461 22.8734C14.6623 22.6254 14.6766 22.5383 14.6758 22.0858C14.6749 21.637 14.6594 21.544 14.5451 21.2981C14.4738 21.1448 14.3023 20.8997 14.1641 20.7534C14.0184 20.5993 13.79 20.4262 13.6208 20.3417C13.4603 20.2614 13.2888 20.1957 13.2398 20.1957C13.1568 20.1957 13.1506 20.1404 13.1506 19.3991V18.6025L13.3807 18.5719C13.5073 18.5551 13.7962 18.5088 14.0227 18.469C14.2492 18.4293 14.6307 18.33 14.8705 18.2484C15.1104 18.1668 15.4592 18.0236 15.6457 17.9302C15.8322 17.8368 16.1375 17.6628 16.324 17.5435C16.5105 17.4242 16.7689 17.2385 16.8982 17.1307L17.1332 16.9347L17.9519 17.7536L18.7705 18.5725L18.6737 18.8273C18.6163 18.9784 18.5769 19.1996 18.5769 19.3706C18.5769 19.5472 18.6173 19.7671 18.6812 19.938C18.752 20.1271 18.8656 20.297 19.034 20.4654C19.2023 20.6338 19.3723 20.7475 19.5613 20.8183C19.7316 20.882 19.9519 20.9227 20.1272 20.9227C20.3025 20.9227 20.5229 20.882 20.6932 20.8183C20.8822 20.7475 21.0521 20.6338 21.2205 20.4654C21.3888 20.297 21.5025 20.1271 21.5732 19.938C21.6369 19.7677 21.6776 19.5472 21.6776 19.3719C21.6776 19.1966 21.6369 18.9761 21.5732 18.8058C21.5025 18.6167 21.3888 18.4468 21.2205 18.2783C21.0521 18.1099 20.8822 17.9963 20.6932 17.9255C20.5224 17.8616 20.3025 17.8211 20.1259 17.8211C19.9549 17.8211 19.7339 17.8605 19.5828 17.9179L19.328 18.0148L18.5081 17.1947L17.6883 16.3746L17.8404 16.2013C17.9241 16.106 18.0993 15.8697 18.2298 15.6763C18.3603 15.4828 18.5547 15.1503 18.6617 14.9372C18.7687 14.7242 18.9232 14.3502 19.0049 14.106C19.0867 13.8618 19.1858 13.4802 19.2252 13.2579C19.2647 13.0356 19.3106 12.7502 19.3274 12.6236L19.358 12.3934H19.7668C20.1009 12.3934 20.1757 12.4069 20.1757 12.4673C20.1757 12.5079 20.2177 12.6608 20.2691 12.807C20.3204 12.9532 20.4491 13.1949 20.5549 13.3441C20.6608 13.4933 20.8487 13.6992 20.9726 13.8016C21.0965 13.904 21.3151 14.0433 21.4585 14.1112C21.6018 14.179 21.8342 14.2592 21.9749 14.2894C22.116 14.3196 22.4057 14.3329 22.6204 14.3189C22.844 14.3043 23.1284 14.2486 23.2882 14.1882C23.4412 14.1303 23.6977 13.9841 23.858 13.8636C24.0184 13.7429 24.2361 13.5235 24.3417 13.3759C24.4474 13.2284 24.5805 12.9851 24.6376 12.8353C24.7038 12.6616 24.7503 12.4026 24.7662 12.12C24.7866 11.7561 24.7724 11.6159 24.6869 11.3344C24.6297 11.146 24.4895 10.8547 24.3753 10.687C24.2574 10.5141 24.0393 10.2847 23.871 10.1569C23.7078 10.0329 23.4473 9.8834 23.2921 9.82466C23.1286 9.76277 22.8461 9.70719 22.6204 9.6925C22.4022 9.6783 22.1158 9.69178 21.9694 9.72323C21.8256 9.75405 21.5712 9.84661 21.4042 9.92885C21.2269 10.0161 20.981 10.198 20.8133 10.3657C20.642 10.537 20.4638 10.7795 20.372 10.9659C20.2873 11.138 20.2057 11.3551 20.1905 11.4484L20.163 11.618H19.7605H19.358L19.3274 11.3878C19.3106 11.2612 19.2647 10.9757 19.2252 10.7535C19.1858 10.5312 19.0867 10.1495 19.0049 9.9054C18.9232 9.6612 18.7687 9.28717 18.6617 9.07413C18.5547 8.86109 18.3603 8.52855 18.2298 8.33509C18.0993 8.14167 17.9241 7.90538 17.8404 7.81005L17.6883 7.63675L18.5081 6.81668L19.328 5.99661L19.5828 6.09343C19.7339 6.15086 19.9549 6.19026 20.1259 6.19026C20.3025 6.19026 20.5224 6.1498 20.6932 6.08587C20.8822 6.01512 21.0521 5.90143 21.2205 5.73302C21.3888 5.56462 21.5025 5.39466 21.5732 5.20556C21.6369 5.03527 21.6776 4.81482 21.6776 4.63948C21.6776 4.46415 21.6369 4.24369 21.5732 4.0734C21.5025 3.8843 21.3888 3.71434 21.2205 3.54594C21.0521 3.37753 20.8822 3.26384 20.6932 3.19309C20.5229 3.12936 20.3025 3.0887 20.1272 3.0887C19.9519 3.0887 19.7316 3.12936 19.5613 3.19309C19.3723 3.26384 19.2023 3.37753 19.034 3.54594C18.8656 3.71434 18.752 3.8843 18.6812 4.0734C18.6173 4.24423 18.5769 4.46415 18.5769 4.64079C18.5769 4.81181 18.6163 5.03294 18.6737 5.18405L18.7705 5.43891L17.9519 6.25777L17.1332 7.07663L16.8982 6.8807C16.7689 6.77292 16.5105 6.58716 16.324 6.4679C16.1375 6.34859 15.8322 6.17456 15.6457 6.08117C15.4592 5.98779 15.1104 5.84482 14.8705 5.76355C14.6307 5.68224 14.2492 5.58211 14.0227 5.54111C13.7962 5.50007 13.5073 5.45354 13.3807 5.43775L13.1506 5.40891V4.61229C13.1506 3.87097 13.1568 3.81563 13.2398 3.81563C13.2888 3.81563 13.4603 3.74996 13.6208 3.66971C13.79 3.58519 14.0184 3.41204 14.1641 3.25798C14.3023 3.11172 14.4738 2.8666 14.5451 2.71327C14.6595 2.46727 14.6749 2.37442 14.6758 1.9246C14.6767 1.44681 14.6669 1.39467 14.5201 1.09643C14.422 0.89711 14.2635 0.683636 14.0963 0.525359C13.9493 0.386371 13.7037 0.214912 13.5505 0.144303C13.327 0.0414189 13.1853 0.013214 12.8357 0.00206779C12.5607 -0.00670381 12.3243 0.0127294 12.1955 0.0546974ZM13.2909 0.906076C13.3869 0.955507 13.523 1.05796 13.5932 1.13365C13.6635 1.2094 13.7536 1.3368 13.7934 1.41677C13.8333 1.49673 13.8811 1.65404 13.8998 1.76632C13.9224 1.90235 13.9077 2.05995 13.8558 2.23863C13.8129 2.3861 13.7097 2.58446 13.6263 2.67939C13.5429 2.77438 13.3854 2.89834 13.2763 2.9549C13.1338 3.02875 12.9893 3.05769 12.763 3.05769C12.5378 3.05769 12.3929 3.02885 12.2543 2.9565C12.1477 2.90082 12.003 2.79328 11.9328 2.71758C11.8625 2.64183 11.7659 2.50352 11.718 2.41024C11.6604 2.29809 11.631 2.13386 11.6311 1.92562C11.6312 1.70056 11.6601 1.55527 11.7324 1.41677C11.7881 1.31015 11.8999 1.16002 11.9808 1.08311C12.0617 1.0062 12.2436 0.902199 12.3849 0.852089C12.5664 0.787635 12.7116 0.768977 12.8791 0.788556C13.0095 0.803773 13.1948 0.856644 13.2909 0.906076ZM22.1767 2.03718C21.7487 2.46534 21.6776 2.55887 21.6776 2.69364C21.6776 2.79589 21.7192 2.89238 21.7965 2.96973C21.8739 3.04712 21.9703 3.0887 22.0725 3.0887C22.2073 3.0887 22.3008 3.01756 22.7288 2.58945C23.1732 2.145 23.228 2.07139 23.228 1.91941C23.228 1.80359 23.1919 1.71476 23.1158 1.64328C23.0463 1.57795 22.9414 1.53792 22.8398 1.53792C22.6964 1.53792 22.6132 1.60058 22.1767 2.03718ZM3.80183 2.03466C3.95978 2.11433 4.04737 2.20195 4.12702 2.35993C4.18695 2.47886 4.23603 2.63234 4.23603 2.70101C4.23603 2.76968 4.18695 2.92316 4.12702 3.04208C4.04737 3.20007 3.95978 3.28769 3.80183 3.36736C3.68294 3.4273 3.5295 3.4764 3.46085 3.4764C3.3922 3.4764 3.23876 3.4273 3.11987 3.36736C2.96193 3.28769 2.87433 3.20007 2.79468 3.04208C2.73475 2.92316 2.68567 2.76968 2.68567 2.70101C2.68567 2.63234 2.73475 2.47886 2.79468 2.35993C2.87433 2.20195 2.96193 2.11433 3.11987 2.03466C3.23876 1.97471 3.3922 1.92562 3.46085 1.92562C3.5295 1.92562 3.68294 1.97471 3.80183 2.03466ZM20.4682 3.97313C20.6262 4.0528 20.7138 4.14042 20.7934 4.29841C20.8534 4.41733 20.9024 4.57081 20.9024 4.63948C20.9024 4.70815 20.8534 4.86163 20.7934 4.98056C20.7138 5.13854 20.6262 5.22616 20.4682 5.30583C20.3493 5.36578 20.1959 5.41487 20.1272 5.41487C20.0586 5.41487 19.9051 5.36578 19.7863 5.30583C19.6283 5.22616 19.5407 5.13854 19.4611 4.98056C19.4011 4.86163 19.3521 4.70815 19.3521 4.63948C19.3521 4.57081 19.4011 4.41733 19.4611 4.29841C19.5407 4.14042 19.6283 4.0528 19.7863 3.97313C19.9051 3.91318 20.0586 3.86409 20.1272 3.86409C20.1959 3.86409 20.3493 3.91318 20.4682 3.97313ZM13.8935 6.31098C14.1023 6.3543 14.462 6.45574 14.6929 6.53638C14.9238 6.61706 15.2763 6.7705 15.4761 6.87731C15.676 6.98412 15.9774 7.16987 16.1459 7.2901C16.3144 7.41034 16.591 7.6385 16.7605 7.79716C16.93 7.95578 17.1896 8.24335 17.3372 8.43618C17.4849 8.62901 17.7035 8.9585 17.8231 9.16839C17.9427 9.37828 18.1089 9.73728 18.1925 9.96612C18.2761 10.195 18.3832 10.5682 18.4305 10.7954C18.4777 11.0227 18.5319 11.4043 18.5508 11.6435C18.5705 11.8938 18.5623 12.2825 18.5313 12.5596C18.5018 12.8242 18.4329 13.2167 18.3782 13.4319C18.3235 13.647 18.2232 13.9648 18.1553 14.138C18.0874 14.3113 17.9431 14.6111 17.8345 14.8044C17.7259 14.9976 17.6196 15.1557 17.5983 15.1557C17.5769 15.1557 17.5594 15.1212 17.5594 15.079C17.5594 15.0368 17.493 14.8362 17.4118 14.6334C17.3306 14.4305 17.1616 14.0919 17.0363 13.8808C16.911 13.6698 16.6367 13.3133 16.4269 13.0887C16.217 12.8641 15.9211 12.5848 15.7694 12.4681C15.6177 12.3513 15.3425 12.1739 15.1578 12.0739C14.9732 11.9739 14.8142 11.8862 14.8046 11.8789C14.7949 11.8716 14.8631 11.7717 14.9562 11.657C15.0492 11.5422 15.1716 11.3563 15.2283 11.2439C15.2849 11.1314 15.3638 10.9142 15.4037 10.7612C15.4435 10.6082 15.4761 10.3068 15.4761 10.0914C15.4761 9.87608 15.4425 9.57067 15.4014 9.41273C15.3603 9.2548 15.257 8.98307 15.1718 8.8089C15.0701 8.60075 14.9006 8.3757 14.6773 8.15239C14.4541 7.92903 14.2291 7.75951 14.021 7.65774C13.8469 7.57259 13.5752 7.46927 13.4173 7.42812C13.2594 7.38703 12.965 7.35335 12.763 7.35335C12.561 7.35335 12.2658 7.38645 12.107 7.42691C11.9482 7.46738 11.6766 7.57089 11.5033 7.65701C11.3011 7.75752 11.0671 7.93484 10.8492 8.15287C10.6312 8.37085 10.4539 8.60487 10.3535 8.8072C10.2674 8.98045 10.1639 9.25218 10.1234 9.41104C10.083 9.5699 10.0499 9.87608 10.0499 10.0914C10.0499 10.3068 10.0825 10.6082 10.1223 10.7612C10.1622 10.9142 10.2411 11.1314 10.2977 11.2439C10.3544 11.3563 10.4768 11.5422 10.5698 11.657C10.6629 11.7717 10.7311 11.8716 10.7215 11.8789C10.7118 11.8862 10.5529 11.9739 10.3682 12.0739C10.1836 12.1739 9.91103 12.3493 9.76258 12.4637C9.61419 12.5781 9.32863 12.8435 9.1281 13.0537C8.92757 13.2638 8.6595 13.6026 8.53242 13.8065C8.40539 14.0105 8.22647 14.3593 8.1349 14.5817C8.04328 14.8041 7.96795 15.0243 7.96746 15.0709C7.96698 15.1175 7.94915 15.1557 7.92778 15.1557C7.90641 15.1557 7.80012 14.9976 7.69154 14.8044C7.58297 14.6111 7.43854 14.3113 7.37057 14.138C7.30265 13.9648 7.20294 13.6541 7.14901 13.4477C7.09509 13.2413 7.02615 12.8487 6.99582 12.5754C6.96481 12.2957 6.95503 11.8982 6.97348 11.6665C6.99156 11.4399 7.03816 11.0841 7.07707 10.8758C7.11602 10.6676 7.21403 10.3078 7.29485 10.0762C7.37571 9.84472 7.52924 9.49173 7.63602 9.29182C7.7428 9.09192 7.92851 8.79043 8.04871 8.62193C8.16891 8.45338 8.39914 8.17444 8.56033 8.00206C8.72152 7.82973 9.02423 7.55994 9.23299 7.40258C9.44176 7.24523 9.75023 7.03951 9.91844 6.94539C10.0867 6.85128 10.3758 6.712 10.561 6.63582C10.7462 6.55969 11.0722 6.45055 11.2853 6.39327C11.4985 6.33603 11.8255 6.26814 12.0121 6.24245C12.1986 6.21672 12.6128 6.20393 12.9326 6.21396C13.2524 6.22404 13.6848 6.26765 13.8935 6.31098ZM13.4522 8.27504C13.5928 8.32859 13.8095 8.44737 13.9339 8.53892C14.0582 8.63051 14.2306 8.80803 14.3169 8.93349C14.4032 9.05891 14.5174 9.27263 14.5708 9.40842C14.641 9.58695 14.6688 9.776 14.6714 10.0914C14.6744 10.4728 14.6574 10.5655 14.5363 10.8297C14.4518 11.0139 14.3085 11.2153 14.1694 11.3455C14.0438 11.463 13.8728 11.5944 13.7895 11.6375C13.7062 11.6807 13.6155 11.7579 13.5881 11.8092C13.5606 11.8604 13.5382 11.9535 13.5382 12.016C13.5382 12.0784 13.5697 12.1746 13.6084 12.2297C13.6489 12.2875 13.8591 12.3944 14.1061 12.4828C14.3412 12.567 14.6967 12.7313 14.8959 12.848C15.0951 12.9647 15.4172 13.2075 15.6117 13.3877C15.8062 13.5679 16.0598 13.8485 16.1752 14.0114C16.2906 14.1744 16.4451 14.4271 16.5184 14.5731C16.5917 14.7191 16.6939 14.959 16.7454 15.1062C16.797 15.2534 16.8681 15.5224 16.9035 15.704L16.968 16.0341L16.5871 16.3582C16.3777 16.5364 16.0232 16.7974 15.7995 16.9382C15.5758 17.079 15.2098 17.2684 14.9863 17.3591C14.7627 17.4498 14.4084 17.5687 14.1989 17.6231C13.9895 17.6777 13.5806 17.7471 13.2905 17.7775C12.8957 17.8188 12.6304 17.8188 12.2355 17.7775C11.9454 17.7471 11.5403 17.6783 11.3354 17.6246C11.1304 17.5709 10.7716 17.4505 10.538 17.3569C10.3044 17.2635 9.91917 17.061 9.68187 16.9072C9.44462 16.7533 9.09554 16.4933 8.9062 16.3294L8.56193 16.0314L8.6017 15.7797C8.6236 15.6412 8.68721 15.3863 8.74308 15.2133C8.79899 15.0402 8.91134 14.7657 8.99273 14.6031C9.07418 14.4406 9.23391 14.1762 9.34777 14.0156C9.46162 13.855 9.70934 13.5777 9.89829 13.3995C10.0872 13.2212 10.4107 12.9764 10.6171 12.8556C10.8235 12.7347 11.1848 12.567 11.42 12.4828C11.667 12.3944 11.8772 12.2875 11.9177 12.2297C11.9563 12.1746 11.9878 12.0784 11.9878 12.016C11.9878 11.9535 11.9654 11.8604 11.9379 11.8092C11.9105 11.7579 11.8199 11.6807 11.7365 11.6375C11.6532 11.5944 11.4823 11.463 11.3566 11.3455C11.2206 11.2182 11.0775 11.0185 11.0024 10.8513C10.9332 10.697 10.8628 10.452 10.8459 10.3069C10.8289 10.1618 10.8394 9.91213 10.869 9.75221C10.8986 9.59228 10.9764 9.35172 11.0419 9.21767C11.1074 9.08358 11.2355 8.88731 11.3267 8.78152C11.4178 8.67568 11.6093 8.51905 11.7522 8.43342C11.8952 8.34778 12.132 8.24432 12.2785 8.20346C12.4535 8.15466 12.6569 8.13746 12.8708 8.1534C13.05 8.16673 13.3117 8.22149 13.4522 8.27504ZM3.69549 10.6023C3.81957 10.657 4.02349 10.8023 4.14858 10.9252C4.27368 11.0481 4.42498 11.2598 4.48482 11.3955C4.56597 11.5796 4.59363 11.7345 4.59363 12.0057C4.59363 12.2768 4.56597 12.4318 4.48482 12.6159C4.42498 12.7516 4.27368 12.9632 4.14858 13.0861C4.02349 13.2091 3.8121 13.3586 3.67887 13.4185C3.49665 13.5004 3.34656 13.5273 3.07326 13.527C2.80301 13.5266 2.64667 13.4986 2.46319 13.4176C2.32754 13.3578 2.11596 13.2064 1.9931 13.0813C1.87018 12.9562 1.72067 12.7447 1.66078 12.6115C1.5791 12.4297 1.55192 12.2783 1.55192 12.0057C1.55192 11.733 1.5791 11.5817 1.66083 11.3999C1.72076 11.2666 1.86141 11.0631 1.97338 10.9476C2.08534 10.8322 2.2584 10.6956 2.35787 10.6441C2.45738 10.5927 2.62089 10.53 2.72123 10.5048C2.82162 10.4796 3.03106 10.4688 3.18678 10.4809C3.34249 10.4929 3.57141 10.5476 3.69549 10.6023ZM23.075 10.6023C23.1991 10.657 23.403 10.8023 23.5281 10.9252C23.6532 11.0481 23.8045 11.2598 23.8643 11.3955C23.9455 11.5796 23.9731 11.7345 23.9731 12.0057C23.9731 12.2768 23.9455 12.4318 23.8643 12.6159C23.8045 12.7516 23.6532 12.9632 23.5281 13.0861C23.403 13.2091 23.1916 13.3586 23.0584 13.4185C22.8762 13.5004 22.7261 13.5273 22.4528 13.527C22.1825 13.5266 22.0262 13.4986 21.8427 13.4176C21.7071 13.3578 21.4955 13.2064 21.3726 13.0813C21.2497 12.9562 21.1002 12.7447 21.0403 12.6115C20.9586 12.4297 20.9314 12.2783 20.9314 12.0057C20.9314 11.733 20.9586 11.5817 21.0403 11.3999C21.1003 11.2666 21.2409 11.0631 21.3529 10.9476C21.4649 10.8322 21.6379 10.6956 21.7374 10.6441C21.8369 10.5927 22.0004 10.53 22.1007 10.5048C22.2011 10.4796 22.4106 10.4688 22.5663 10.4809C22.722 10.4929 22.9509 10.5476 23.075 10.6023ZM6.6731 17.545C6.22878 17.9894 6.17398 18.063 6.17398 18.215C6.17398 18.3308 6.21008 18.4197 6.28609 18.4911C6.35562 18.5565 6.46056 18.5965 6.56215 18.5965C6.70551 18.5965 6.7887 18.5338 7.22522 18.0972C7.65322 17.6691 7.72434 17.5756 7.72434 17.4408C7.72434 17.3385 7.68278 17.242 7.6054 17.1647C7.52808 17.0873 7.43162 17.0457 7.32939 17.0457C7.19465 17.0457 7.10115 17.1169 6.6731 17.545ZM4.74654 19.4683L3.87034 20.3402L3.61661 20.2437C3.46657 20.1867 3.24511 20.1473 3.07457 20.1473C2.89797 20.1473 2.67811 20.1877 2.50733 20.2517C2.31828 20.3224 2.14837 20.4361 1.98001 20.6045C1.81165 20.7729 1.69799 20.9429 1.62726 21.132C1.56355 21.3023 1.5229 21.5227 1.5229 21.6981C1.5229 21.8734 1.56355 22.0938 1.62726 22.2641C1.69799 22.4532 1.81165 22.6232 1.98001 22.7916C2.14837 22.96 2.31828 23.0737 2.50733 23.1445C2.67758 23.2082 2.89797 23.2488 3.07326 23.2488C3.24855 23.2488 3.46894 23.2082 3.63919 23.1445C3.82824 23.0737 3.99815 22.96 4.16651 22.7916C4.33487 22.6232 4.44853 22.4532 4.51926 22.2641C4.58317 22.0933 4.62362 21.8734 4.62362 21.6968C4.62362 21.5262 4.58423 21.3046 4.52721 21.1546L4.4308 20.9008L5.30239 20.0243C6.0719 19.2505 6.17398 19.1295 6.17398 18.9911C6.17398 18.8894 6.13232 18.7927 6.05504 18.7155C5.97781 18.6382 5.88121 18.5965 5.77946 18.5965C5.64114 18.5965 5.52017 18.6986 4.74654 19.4683ZM20.4682 18.7055C20.6262 18.7852 20.7138 18.8728 20.7934 19.0308C20.8534 19.1497 20.9024 19.3032 20.9024 19.3719C20.9024 19.4406 20.8534 19.594 20.7934 19.713C20.7138 19.871 20.6262 19.9586 20.4682 20.0382C20.3493 20.0982 20.1959 20.1473 20.1272 20.1473C20.0586 20.1473 19.9051 20.0982 19.7863 20.0382C19.6283 19.9586 19.5407 19.871 19.4611 19.713C19.4011 19.594 19.3521 19.4406 19.3521 19.3719C19.3521 19.3032 19.4011 19.1497 19.4611 19.0308C19.5407 18.8728 19.6283 18.7852 19.7863 18.7055C19.9051 18.6455 20.0586 18.5965 20.1272 18.5965C20.1959 18.5965 20.3493 18.6455 20.4682 18.7055ZM3.41424 21.0317C3.57219 21.1114 3.65978 21.199 3.73943 21.357C3.79936 21.4759 3.84844 21.6294 3.84844 21.6981C3.84844 21.7667 3.79936 21.9202 3.73943 22.0391C3.65978 22.1971 3.57219 22.2847 3.41424 22.3644C3.29535 22.4244 3.14191 22.4735 3.07326 22.4735C3.00461 22.4735 2.85117 22.4244 2.73228 22.3644C2.57434 22.2847 2.48674 22.1971 2.40709 22.0391C2.34716 21.9202 2.29808 21.7667 2.29808 21.6981C2.29808 21.6294 2.34716 21.4759 2.40709 21.357C2.48674 21.199 2.57434 21.1114 2.73228 21.0317C2.85117 20.9717 3.00461 20.9227 3.07326 20.9227C3.14191 20.9227 3.29535 20.9717 3.41424 21.0317ZM13.2909 21.0662C13.3869 21.1156 13.523 21.2181 13.5932 21.2938C13.6635 21.3695 13.7601 21.5078 13.808 21.6011C13.8656 21.7133 13.8951 21.8775 13.895 22.0858C13.8948 22.3119 13.8658 22.4568 13.792 22.5992C13.7355 22.7083 13.6115 22.8658 13.5166 22.9492C13.4217 23.0327 13.2234 23.1359 13.0759 23.1788C12.8972 23.2308 12.7399 23.2454 12.6038 23.2228C12.4915 23.2041 12.3233 23.1497 12.2301 23.1021C12.1368 23.0544 12.003 22.9534 11.9328 22.8777C11.8625 22.802 11.7725 22.6746 11.7326 22.5946C11.6928 22.5146 11.6449 22.3573 11.6263 22.2451C11.6036 22.109 11.6183 21.9514 11.6703 21.7727C11.7131 21.6253 11.8162 21.4271 11.8994 21.3323C11.9826 21.2376 12.1183 21.1248 12.2009 21.0817C12.2836 21.0386 12.4166 20.9864 12.4965 20.9657C12.5765 20.945 12.7486 20.9389 12.8791 20.9522C13.0095 20.9655 13.1948 21.0168 13.2909 21.0662Z" fill="#1F1F1F"/>
</svg>
